<svg width="920" height="826" viewBox="0 0 920 826" fill="none" xmlns="http://www.w3.org/2000/svg">
<g clip-path="url(#clip0_17_310)">
<path d="M589.423 659.646L598.263 679.085C591.077 677.963 584.394 683.982 584.244 691.711C584.094 699.44 590.504 707.481 597.69 708.579C596.317 714.58 590.39 717.226 585.245 719.651C580.101 722.077 574.556 726.099 574.938 732.493C575.246 737.627 579.575 742.16 584.172 743.982C588.77 745.805 593.594 745.525 598.25 745.219C591.194 752.457 590.507 766.062 596.703 775.822C602.9 785.583 615.275 790.388 624.54 786.631C617.993 794.617 619.416 809.243 627.541 817.485C635.732 825.794 647.602 826.598 657.98 825.723C684.406 823.532 709.587 813.746 730.37 797.59C738.303 791.408 745.714 784.138 750.239 774.654C754.765 765.171 756.098 753.164 751.883 742.372C753.02 755.891 766.818 766.569 779.231 767.166C791.645 767.764 802.482 760.907 811.692 753.088C823.94 742.691 835.28 728.116 833.599 710.132C832.767 701.23 828.802 692.667 824.913 684.374L817.373 668.295C814.329 661.804 811.216 655.203 806.635 649.756C802.054 644.309 795.695 640.092 789.331 640.132C790.786 633.613 792.248 626.852 791.028 619.926C789.809 613 785.14 605.829 778.79 604.207C770.709 602.143 763.86 609.456 755.734 608.767C747.914 608.103 741.451 600.407 733.857 597.357C730.73 596.031 727.277 595.628 723.921 596.197C720.564 596.767 717.45 598.284 714.959 600.563C710.145 605.171 708.138 612.958 709.866 620.325C711.379 626.779 715.406 632.471 717.851 638.695C720.295 644.919 720.674 652.923 715.98 656.322C710.315 660.424 701.692 654.842 697.266 648.089C692.841 641.336 690.299 633.16 684.703 627.481C678.097 620.778 667.757 619.207 660.956 623.873C654.155 628.539 651.554 638.988 654.983 647.871C657.786 655.133 664.208 662.481 661.981 669.32C659.627 676.548 649.327 675.632 643.113 670.524C636.9 665.416 632.775 657.721 626.637 652.498C620.404 647.194 612.264 644.87 605.119 646.354C601.494 647.179 598.139 648.886 595.364 651.317C592.59 653.748 590.484 656.826 589.242 660.266" fill="#E6E6E6"/>
<path d="M732.555 605.018L714.212 613.376C711.455 614.711 708.328 615.125 705.308 614.553C702.645 613.935 700.846 612.339 700.373 610.171L696.105 590.621C695.299 586.934 698.413 582.57 703.51 580.248L713.64 575.633C718.737 573.311 724.146 573.79 726.5 576.773L738.983 592.579C740.367 594.332 740.451 596.71 739.215 599.104C737.713 601.736 735.374 603.813 732.555 605.018Z" fill="#3F3D56"/>
<path d="M163.769 243.701C181.014 197.416 207.926 155.172 242.781 119.675C272.352 89.5713 318.376 90.8222 318.376 90.8222L318.639 90.5023C329.715 77.1073 344.579 67.2183 361.365 62.076C378.151 56.9337 396.112 56.7671 412.994 61.597C417.383 62.8318 420.758 63.3792 422.363 62.8292C451.629 52.7846 450.254 30.1131 475.505 11.8492C519.717 -20.13 666.363 16.5015 687.041 75.347C703.801 123.04 778.612 146.156 806.561 182.637C810.932 188.342 815.22 194.112 819.425 199.949C821.397 202.66 823.347 205.392 825.274 208.145C845.077 236.266 862.841 265.716 878.437 296.278C888.665 316.245 897.553 336.845 905.047 357.947C934.195 441.508 924.227 503.765 843.857 488.384C834.343 486.559 825.057 484.926 816 483.484C802.886 481.386 790.228 479.661 778.028 478.31C761.599 476.478 745.97 475.277 731.139 474.709C726.152 474.512 721.257 474.38 716.453 474.313C645.425 473.347 592.74 486.457 552.603 506.807C545.799 510.248 539.351 513.888 533.26 517.727C523.956 523.56 515.072 530.013 506.671 537.042C495.047 546.824 484.327 557.596 474.637 569.231L474.104 569.87C427.159 626.182 411.709 688.522 379.053 699.498C239.46 746.427 151.172 576.309 142.118 409.897C141.661 401.511 141.408 393.149 141.361 384.812C141.332 381.085 141.351 377.368 141.417 373.661C141.56 363.99 141.995 354.381 142.723 344.888C142.995 341.259 143.31 337.649 143.669 334.058C144.064 330.186 144.495 326.336 144.992 322.511C148.543 294.472 154.755 267.794 163.769 243.701Z" fill="#5E93AD"/>
<path d="M596.441 335.26C585.293 340.35 585.109 363.148 588.605 370.535L594.94 383.906L635.321 365.507L628.986 352.136C625.483 344.752 607.597 330.187 596.441 335.26Z" fill="#3F3D56"/>
<path d="M487.926 527.228C487.216 527.228 486.516 527.059 485.886 526.737C485.256 526.416 484.714 525.949 484.307 525.378C483.899 524.807 483.639 524.148 483.547 523.458C483.454 522.767 483.534 522.064 483.777 521.41C483.975 520.875 484.279 520.384 484.671 519.965C485.064 519.546 485.537 519.208 486.064 518.97L694.603 423.956C695.129 423.716 695.698 423.58 696.277 423.556C696.856 423.532 697.434 423.62 697.979 423.815C698.524 424.01 699.024 424.308 699.45 424.693C699.877 425.078 700.223 425.541 700.467 426.057C700.959 427.098 701.01 428.288 700.608 429.366C700.206 430.444 699.385 431.322 698.324 431.807L489.784 526.821C489.203 527.088 488.569 527.227 487.926 527.228Z" fill="#3F3D56"/>
<path d="M651.051 374.034L591.441 401.194L684.948 598.558L744.559 571.398L651.051 374.034Z" fill="#E6E6E6"/>
<path d="M427.279 125.586C416.131 130.676 415.947 153.474 419.443 160.861L425.778 174.232L466.159 155.834L459.824 142.463C456.321 135.079 438.436 120.513 427.279 125.586Z" fill="#3F3D56"/>
<path d="M677.068 627.707L658.725 636.064C655.967 637.4 652.84 637.813 649.82 637.242C647.157 636.624 645.358 635.027 644.885 632.859L640.617 613.31C639.811 609.622 642.926 605.259 648.022 602.937L658.152 598.321C663.249 595.999 668.658 596.479 671.012 599.461L683.495 615.268C684.88 617.02 684.964 619.399 683.727 621.793C682.226 624.425 679.887 626.502 677.068 627.707Z" fill="#3F3D56"/>
<path d="M620.671 655.146L602.328 663.503C599.571 664.839 596.443 665.252 593.424 664.681C590.761 664.063 588.961 662.466 588.489 660.298L584.22 640.749C583.414 637.061 586.529 632.698 591.626 630.376L601.756 625.76C606.852 623.438 612.261 623.918 614.616 626.9L627.099 642.707C628.483 644.459 628.567 646.838 627.331 649.232C625.829 651.864 623.49 653.941 620.671 655.146Z" fill="#3F3D56"/>
<path d="M497.795 197.933L438.185 225.092L627.2 624.041L686.81 596.881L497.795 197.933Z" fill="#E6E6E6"/>
<path d="M559.646 403.59L552.957 389.157L556.808 387.415L563.476 401.802L660.037 611.756L656.19 613.508" fill="#3F3D56"/>
<path d="M635.088 391.593L628.399 377.16L632.249 375.418L638.918 389.805L735.478 599.759L731.632 601.511" fill="#3F3D56"/>
<path d="M525.931 229.86L445.162 266.66C440.019 258.814 424.518 218.612 427.999 206.684L425.386 195.309L481.155 169.899L488.62 178.904C499.701 182.238 521.272 220 525.931 229.86Z" fill="#E6E6E6"/>
<path d="M483.486 170.386L425.935 196.607C423.811 197.575 421.548 197.219 420.882 195.812C420.786 195.609 420.727 195.392 420.707 195.17L417.728 164.009C417.6 162.675 418.765 161.163 420.543 160.353L458.709 142.964C460.488 142.153 462.417 142.256 463.374 143.212L485.737 165.54C486.881 166.682 486.26 168.637 484.35 169.906C484.075 170.089 483.786 170.249 483.486 170.386Z" fill="#E6E6E6"/>
<path d="M528.625 414.514C528.002 414.515 527.381 414.443 526.775 414.3C525.922 414.126 525.12 413.763 524.431 413.239C523.743 412.715 523.186 412.043 522.803 411.275L487.618 337.011C486.162 333.937 488.117 330.005 491.976 328.247L543.496 304.772C547.356 303.013 551.68 304.085 553.137 307.159L588.322 381.424C588.674 382.206 588.838 383.057 588.803 383.911C588.767 384.765 588.533 385.6 588.118 386.351C587.214 388.053 585.75 389.405 583.964 390.188L532.444 413.661C531.249 414.214 529.946 414.505 528.625 414.514Z" fill="#3F3D56"/>
<path d="M535.67 425.755L476.06 452.915L569.568 650.279L629.178 623.119L535.67 425.755Z" fill="#E6E6E6"/>
<path d="M462.231 173.641L444.75 181.606C441.377 183.143 436.826 180.582 434.607 175.898C432.388 171.213 433.327 166.151 436.7 164.614L454.181 156.649C457.554 155.112 462.105 157.673 464.325 162.358C466.544 167.042 465.605 172.104 462.231 173.641Z" fill="#3F3D56"/>
<path d="M482.224 386.45C471.076 391.54 470.892 414.338 474.388 421.725L480.723 435.096L521.104 416.698L514.769 403.327C511.266 395.943 493.38 381.378 482.224 386.45Z" fill="#3F3D56"/>
<path d="M297.037 340.943C293.1 343.515 289.071 337.393 293.083 334.934C297.02 332.362 301.05 338.485 297.037 340.943Z" fill="#E6E6E6"/>
<path d="M706.869 252.965C702.932 255.537 698.902 249.415 702.915 246.956C706.852 244.384 710.882 250.507 706.869 252.965Z" fill="#E6E6E6"/>
<path d="M427.531 322.947C423.594 325.52 419.564 319.397 423.577 316.939C427.514 314.366 431.544 320.489 427.531 322.947Z" fill="#E6E6E6"/>
<path d="M297.037 562.887C293.1 565.46 289.071 559.337 293.083 556.879C297.02 554.306 301.05 560.429 297.037 562.887Z" fill="#E6E6E6"/>
<path d="M497.875 62.0128C493.938 64.5853 489.908 58.4624 493.921 56.0041C497.858 53.4317 501.888 59.5546 497.875 62.0128Z" fill="#E6E6E6"/>
<path d="M304.174 179.983C300.237 182.556 296.207 176.433 300.22 173.975C304.157 171.402 308.187 177.525 304.174 179.983Z" fill="#E6E6E6"/>
<path d="M582.776 146.163L580.271 145.625L580.82 143.167L579.15 142.808L578.6 145.266L576.095 144.728L575.729 146.365L578.234 146.904L577.686 149.361L579.356 149.72L579.905 147.262L582.41 147.801L582.776 146.163Z" fill="#E6E6E6"/>
<path d="M174.884 350.89L172.379 350.351L172.928 347.895L171.258 347.536L170.708 349.992L168.202 349.455L167.836 351.092L170.342 351.631L169.794 354.088L171.464 354.446L172.013 351.99L174.518 352.528L174.884 350.89Z" fill="#E6E6E6"/>
<path d="M688.588 455.322C686.504 456.269 684.121 456.367 681.963 455.593C679.806 454.82 678.049 453.238 677.078 451.196L666.769 429.436C665.804 427.393 665.705 425.057 666.495 422.943C667.285 420.828 668.898 419.107 670.981 418.158C673.063 417.21 675.445 417.11 677.602 417.882C679.76 418.654 681.516 420.234 682.486 422.275L692.796 444.035C693.762 446.079 693.861 448.416 693.072 450.532C692.283 452.648 690.671 454.371 688.588 455.322Z" fill="#3F3D56"/>
<path d="M513.237 535.302C511.153 536.249 508.77 536.347 506.612 535.573C504.455 534.8 502.698 533.218 501.727 531.176L491.418 509.416C490.453 507.373 490.354 505.037 491.144 502.923C491.934 500.808 493.547 499.087 495.63 498.138C497.712 497.19 500.094 497.09 502.251 497.862C504.408 498.634 506.165 500.214 507.135 502.255L517.445 524.015C518.411 526.059 518.51 528.396 517.721 530.512C516.932 532.628 515.32 534.351 513.237 535.302Z" fill="#3F3D56"/>
<path d="M672.707 407.779L603.58 439.275C599.179 432.561 585.911 398.153 588.89 387.944L590.353 376.524L631.628 356.666L640.774 364.169C653.66 359.896 672.602 391.21 672.707 407.779Z" fill="#E6E6E6"/>
<path d="M640.613 405.596L623.132 413.56C619.759 415.097 614.626 411.308 611.692 405.115C608.758 398.922 609.115 392.632 612.489 391.095L629.97 383.13C633.343 381.593 638.476 385.382 641.41 391.575C644.344 397.768 643.987 404.059 640.613 405.596Z" fill="#3F3D56"/>
<path d="M492.36 446.579L485.671 432.146L489.522 430.404L496.19 444.792L592.751 654.745L588.904 656.498" fill="#3F3D56"/>
<path d="M558.49 458.97L489.363 490.466C479.165 485.302 463.579 451.514 474.673 439.135L476.136 427.714L517.411 407.856L526.557 415.359C536.04 418.213 554.503 450.531 558.49 458.97Z" fill="#E6E6E6"/>
<path d="M524.974 453.783L507.493 461.748C504.119 463.285 499.306 460.17 496.764 454.804C494.222 449.439 494.898 443.822 498.271 442.285L515.753 434.32C519.126 432.784 523.939 435.899 526.481 441.264C529.023 446.63 528.347 452.246 524.974 453.783Z" fill="#3F3D56"/>
<path d="M174.629 307.768C232.622 307.768 279.635 261.665 279.635 204.794C279.635 147.923 232.622 101.819 174.629 101.819C116.635 101.819 69.6219 147.923 69.6219 204.794C69.6219 261.665 116.635 307.768 174.629 307.768Z" fill="#FF9900"/>
<path opacity="0.3" d="M605.171 312.046L668.983 129.283L598.913 309.858C598.566 310.287 598.329 310.79 598.221 311.327C598.112 311.863 598.136 312.417 598.289 312.943C598.443 313.469 598.722 313.951 599.104 314.35C599.485 314.749 599.959 315.053 600.484 315.237C601.009 315.42 601.572 315.479 602.125 315.407C602.678 315.334 603.205 315.134 603.663 314.822C604.121 314.51 604.497 314.096 604.759 313.613C605.021 313.13 605.162 312.593 605.171 312.046Z" fill="#F0F0F0"/>
<path d="M767.833 203.107C755.341 207.178 741.493 211.178 726.288 215.105C647.639 235.411 542.22 251.25 429.449 259.706C316.679 268.163 210.029 268.224 129.147 259.881C89.7468 255.816 58.5835 249.97 36.5231 242.504C13.1674 234.601 0.895051 225.077 0.0465562 214.198C-1.60576 193.003 41.0426 174.349 77.1112 162.432L78.0881 165.274C28.5563 181.639 1.92393 198.933 3.09654 213.969C4.58937 233.12 50.6497 248.767 129.467 256.898C210.171 265.223 316.624 265.159 429.216 256.716C541.808 248.273 647.034 232.465 725.509 212.204C802.147 192.419 845.248 170.086 843.754 150.934C842.514 135.033 810.553 121.431 753.757 112.631L754.234 109.669C795.503 116.063 845.062 128.373 846.804 150.706C847.652 161.585 836.999 172.827 815.14 184.121C802.68 190.559 786.848 196.91 767.833 203.107Z" fill="#3F3D56"/>
<path d="M798.688 385.742C804.714 385.742 809.599 380.952 809.599 375.042C809.599 369.133 804.714 364.343 798.688 364.343C792.663 364.343 787.778 369.133 787.778 375.042C787.778 380.952 792.663 385.742 798.688 385.742Z" fill="#FF9900"/>
<path d="M868.013 675.669C874.039 675.669 878.924 670.879 878.924 664.97C878.924 659.06 874.039 654.27 868.013 654.27C861.987 654.27 857.103 659.06 857.103 664.97C857.103 670.879 861.987 675.669 868.013 675.669Z" fill="#F2F2F2"/>
<path d="M495.902 740.817C507.651 740.817 517.175 731.477 517.175 719.956C517.175 708.435 507.651 699.095 495.902 699.095C484.154 699.095 474.63 708.435 474.63 719.956C474.63 731.477 484.154 740.817 495.902 740.817Z" fill="#F2F2F2"/>
<path d="M333.804 464.722C339.83 464.722 344.715 459.932 344.715 454.023C344.715 448.113 339.83 443.323 333.804 443.323C327.779 443.323 322.894 448.113 322.894 454.023C322.894 459.932 327.779 464.722 333.804 464.722Z" fill="#3F3D56"/>
<path d="M700.615 478.648L747.691 490.598L776.563 546.212L727.751 548.09L700.615 478.648Z" fill="#E6E6E6"/>
<path d="M591.958 398.474L617.867 423.896L683.671 563.416L671.556 573.68L591.958 398.474Z" fill="#CCCCCC"/>
<path d="M535.622 421.518L537.655 457.405L599.766 598.544L615.645 596.539L535.622 421.518Z" fill="#CCCCCC"/>
<path d="M533.927 566.495L508.573 607.187L527.263 666.841L563.672 634.902L533.927 566.495Z" fill="#E6E6E6"/>
<path d="M757.888 591.499C744.725 591.499 730.297 591.011 714.604 590.036C633.44 584.981 528.306 567.408 418.571 540.556C308.836 513.703 207.609 480.777 133.539 447.845C97.4566 431.802 69.7638 416.616 51.2304 402.708C31.6084 387.985 23.0254 375.151 25.719 364.565C30.9672 343.941 77.4384 339.429 115.499 339.276L115.512 342.275C63.2447 342.486 32.4098 350.66 28.6869 365.291C23.9444 383.927 62.622 413.02 134.802 445.113C208.71 477.973 309.75 510.836 419.312 537.646C528.873 564.456 633.812 581.998 714.799 587.042C793.889 591.969 841.972 584.105 846.714 565.469C850.651 549.997 824.695 527.204 773.628 501.287L775.034 498.624C812.14 517.455 855.211 544.464 849.682 566.196C846.988 576.782 833.263 584.156 808.887 588.113C794.992 590.368 777.925 591.499 757.888 591.499Z" fill="#3F3D56"/>
</g>
<defs>
<clipPath id="clip0_17_310">
<rect width="920" height="826" fill="white"/>
</clipPath>
</defs>
</svg>
