<svg width="570" height="605" viewBox="0 0 570 605" fill="none" xmlns="http://www.w3.org/2000/svg">
<path d="M248.902 408.069L274.563 378.801L274.831 379.034L279.551 373.651L279.283 373.417L287.162 364.431C287.456 364.095 287.681 363.705 287.824 363.283C287.967 362.86 288.025 362.414 287.995 361.969C287.965 361.525 287.848 361.09 287.649 360.691C287.451 360.291 287.175 359.935 286.838 359.642L267.756 343.021C267.419 342.728 267.028 342.504 266.604 342.361C266.181 342.219 265.733 342.161 265.287 342.191C264.84 342.221 264.405 342.338 264.004 342.536C263.603 342.733 263.245 343.008 262.951 343.344L257.458 349.61L257.023 349.248L253.808 353.086L254.156 353.375L253.428 354.206L253.057 353.898L249.842 357.736L250.126 357.972L224.691 386.982C224.396 387.318 224.171 387.708 224.027 388.13C223.884 388.552 223.825 388.999 223.855 389.444C223.885 389.889 224.003 390.324 224.202 390.723C224.401 391.122 224.677 391.479 225.015 391.772L244.097 408.392C244.778 408.983 245.666 409.281 246.567 409.221C247.467 409.16 248.307 408.746 248.902 408.069Z" fill="#3F3D56"/>
<path d="M225.462 390.093C225.3 389.8 225.231 389.465 225.267 389.132C225.303 388.799 225.44 388.485 225.661 388.233L264.324 344.134C264.609 343.809 265.012 343.61 265.443 343.581C265.875 343.552 266.301 343.695 266.627 343.979L270.687 347.516L270.528 347.595C270.252 347.733 270.015 347.936 269.837 348.187C269.659 348.438 269.545 348.729 269.506 349.034C269.467 349.339 269.504 349.649 269.614 349.936C269.723 350.223 269.902 350.48 270.134 350.682L279.145 358.53C279.386 358.706 279.665 358.824 279.96 358.873C280.255 358.922 280.557 358.901 280.843 358.812C281.123 358.724 281.379 358.572 281.59 358.367C281.8 358.162 281.959 357.911 282.053 357.633L282.111 357.466L286.305 361.119C286.63 361.403 286.829 361.804 286.859 362.234C286.888 362.664 286.744 363.088 286.46 363.414L249.572 405.488C248.815 406.348 247.747 406.875 246.602 406.952C245.457 407.029 244.328 406.649 243.462 405.898L225.816 390.528C225.674 390.404 225.554 390.257 225.462 390.093Z" fill="white"/>
<path d="M264.43 372.706C267.992 372.706 270.879 369.828 270.879 366.277C270.879 362.727 267.992 359.849 264.43 359.849C260.868 359.849 257.98 362.727 257.98 366.277C257.98 369.828 260.868 372.706 264.43 372.706Z" fill="#F9A826"/>
<path d="M259.554 390.947L241.682 375.38C241.626 375.332 241.58 375.273 241.547 375.207C241.514 375.14 241.494 375.068 241.489 374.994C241.484 374.921 241.494 374.847 241.517 374.777C241.541 374.707 241.578 374.642 241.627 374.586C241.676 374.53 241.735 374.485 241.802 374.452C241.868 374.419 241.941 374.4 242.015 374.395C242.089 374.39 242.163 374.4 242.233 374.424C242.304 374.447 242.368 374.485 242.424 374.533L260.297 390.1C260.353 390.148 260.398 390.207 260.431 390.274C260.464 390.34 260.484 390.412 260.489 390.486C260.494 390.56 260.485 390.634 260.461 390.704C260.437 390.774 260.4 390.838 260.351 390.894C260.302 390.95 260.243 390.995 260.176 391.028C260.11 391.061 260.038 391.08 259.964 391.085C259.889 391.09 259.815 391.08 259.745 391.057C259.675 391.033 259.61 390.996 259.554 390.947Z" fill="white"/>
<path d="M251.881 387.635L246.003 382.515C245.89 382.417 245.821 382.278 245.811 382.129C245.801 381.98 245.85 381.834 245.949 381.721C246.047 381.609 246.187 381.54 246.336 381.53C246.485 381.52 246.632 381.57 246.745 381.668L252.624 386.788C252.736 386.886 252.805 387.025 252.815 387.174C252.825 387.323 252.776 387.469 252.677 387.582C252.579 387.694 252.44 387.763 252.29 387.773C252.141 387.783 251.994 387.733 251.881 387.635Z" fill="white"/>
<path d="M248.483 391.512L242.604 386.392C242.548 386.343 242.503 386.284 242.47 386.218C242.437 386.152 242.417 386.08 242.412 386.006C242.407 385.933 242.417 385.859 242.441 385.789C242.464 385.719 242.502 385.654 242.55 385.599C242.599 385.543 242.659 385.498 242.725 385.465C242.791 385.432 242.864 385.413 242.937 385.408C243.011 385.403 243.086 385.412 243.156 385.436C243.226 385.459 243.291 385.497 243.347 385.545L249.225 390.665C249.338 390.764 249.407 390.902 249.417 391.051C249.427 391.2 249.377 391.347 249.279 391.459C249.18 391.571 249.041 391.64 248.892 391.65C248.743 391.66 248.595 391.61 248.483 391.512Z" fill="white"/>
<path d="M246.741 393.498L240.862 388.378C240.806 388.329 240.761 388.27 240.728 388.204C240.694 388.138 240.675 388.066 240.67 387.992C240.665 387.918 240.674 387.844 240.698 387.774C240.722 387.704 240.759 387.639 240.808 387.584C240.857 387.528 240.916 387.482 240.983 387.45C241.049 387.417 241.121 387.397 241.195 387.392C241.269 387.388 241.344 387.397 241.414 387.421C241.484 387.445 241.549 387.482 241.605 387.531L247.484 392.651C247.539 392.7 247.585 392.759 247.618 392.825C247.651 392.891 247.67 392.963 247.675 393.037C247.68 393.111 247.671 393.184 247.647 393.254C247.623 393.324 247.586 393.389 247.537 393.445C247.488 393.5 247.429 393.546 247.363 393.579C247.296 393.611 247.224 393.631 247.15 393.636C247.076 393.641 247.002 393.631 246.932 393.607C246.862 393.584 246.797 393.547 246.741 393.498Z" fill="white"/>
<path d="M253.503 392.418L241.03 381.555C240.974 381.506 240.928 381.447 240.895 381.381C240.862 381.315 240.842 381.243 240.837 381.169C240.832 381.095 240.842 381.021 240.865 380.951C240.889 380.881 240.926 380.816 240.975 380.76C241.024 380.705 241.083 380.659 241.15 380.626C241.216 380.594 241.289 380.574 241.363 380.569C241.437 380.564 241.511 380.574 241.581 380.598C241.652 380.622 241.717 380.659 241.772 380.708L254.245 391.571C254.301 391.62 254.346 391.679 254.379 391.745C254.412 391.811 254.432 391.883 254.437 391.957C254.442 392.03 254.432 392.104 254.408 392.174C254.385 392.244 254.347 392.309 254.299 392.365C254.25 392.42 254.191 392.466 254.124 392.498C254.058 392.531 253.986 392.551 253.912 392.556C253.838 392.561 253.764 392.551 253.693 392.527C253.623 392.504 253.558 392.467 253.503 392.418Z" fill="white"/>
<path d="M241.07 395.729L238.936 393.87C238.841 393.787 238.763 393.687 238.707 393.574C238.651 393.462 238.618 393.339 238.61 393.214C238.601 393.089 238.617 392.963 238.658 392.844C238.698 392.725 238.761 392.615 238.844 392.521C238.927 392.426 239.028 392.349 239.141 392.293C239.254 392.237 239.377 392.204 239.502 392.196C239.628 392.187 239.754 392.204 239.874 392.244C239.993 392.284 240.103 392.347 240.198 392.43L242.333 394.289C242.524 394.456 242.641 394.692 242.659 394.945C242.676 395.198 242.591 395.447 242.424 395.638C242.256 395.829 242.02 395.946 241.766 395.963C241.512 395.98 241.262 395.896 241.07 395.729Z" fill="white"/>
<path d="M214.108 360.945C213.026 359.872 212.193 358.575 211.668 357.146C211.143 355.717 210.938 354.19 211.069 352.674C211.2 351.158 211.662 349.689 212.424 348.37C213.187 347.051 214.229 345.915 215.48 345.042L198.431 262.803L216.825 268.587L230.541 348.146C231.874 350.337 232.355 352.939 231.892 355.459C231.429 357.979 230.054 360.243 228.029 361.82C226.003 363.398 223.467 364.18 220.902 364.019C218.336 363.858 215.919 362.764 214.108 360.945Z" fill="#9E616A"/>
<path d="M174.701 141.118L186.095 132.546C186.095 132.546 196.146 131.836 197.926 149.903C199.707 167.969 210.852 237.307 210.852 237.307L228.287 317.792L204.153 323.072L185.479 236.214L166.786 176.291L174.701 141.118Z" fill="#2F2E41"/>
<path d="M177.669 289.332L140.483 241.665C139.821 240.815 139.525 239.738 139.659 238.671C139.793 237.603 140.346 236.633 141.198 235.971L195.852 193.615C196.705 192.955 197.785 192.66 198.856 192.794C199.927 192.927 200.901 193.479 201.565 194.327L238.751 241.995C239.413 242.845 239.709 243.921 239.575 244.989C239.441 246.056 238.887 247.027 238.036 247.688L183.382 290.045C182.529 290.704 181.449 291 180.378 290.866C179.307 290.732 178.333 290.181 177.669 289.332Z" fill="#3F3D56"/>
<path d="M178.61 285.029L144.899 241.817C144.311 241.062 144.048 240.106 144.167 239.158C144.286 238.21 144.777 237.348 145.533 236.761L195.551 197.998C196.309 197.412 197.268 197.15 198.219 197.269C199.17 197.387 200.034 197.877 200.624 198.63L234.335 241.843C234.922 242.598 235.185 243.554 235.066 244.501C234.947 245.449 234.456 246.311 233.7 246.898L183.682 285.662C182.925 286.247 181.965 286.509 181.015 286.391C180.064 286.272 179.199 285.783 178.61 285.029Z" fill="white"/>
<path d="M225.875 245.641L208.869 223.842C208.796 223.748 208.742 223.641 208.711 223.527C208.679 223.413 208.67 223.294 208.685 223.177C208.7 223.059 208.738 222.946 208.796 222.843C208.855 222.74 208.933 222.65 209.027 222.577C209.121 222.505 209.228 222.451 209.342 222.42C209.457 222.389 209.576 222.38 209.694 222.395C209.812 222.41 209.926 222.447 210.029 222.506C210.132 222.564 210.223 222.642 210.295 222.736L227.302 244.535C227.375 244.629 227.429 244.736 227.461 244.85C227.492 244.964 227.501 245.083 227.486 245.201C227.472 245.318 227.434 245.432 227.375 245.535C227.317 245.638 227.238 245.728 227.144 245.801C227.051 245.874 226.943 245.927 226.829 245.959C226.714 245.99 226.594 245.998 226.476 245.984C226.358 245.969 226.245 245.931 226.142 245.872C226.038 245.813 225.948 245.735 225.875 245.641Z" fill="#E4E4E4"/>
<path d="M223.056 247.825L206.05 226.026C205.976 225.933 205.922 225.826 205.891 225.712C205.859 225.597 205.85 225.478 205.865 225.361C205.879 225.243 205.917 225.129 205.976 225.026C206.035 224.923 206.113 224.833 206.207 224.76C206.301 224.688 206.408 224.634 206.523 224.603C206.637 224.571 206.757 224.563 206.875 224.578C206.993 224.593 207.107 224.631 207.21 224.689C207.313 224.748 207.404 224.827 207.476 224.92L224.483 246.72C224.629 246.908 224.694 247.147 224.664 247.384C224.634 247.62 224.511 247.835 224.322 247.982C224.134 248.128 223.894 248.194 223.657 248.165C223.419 248.135 223.203 248.013 223.056 247.825Z" fill="#E4E4E4"/>
<path d="M210.603 237.66L203.231 228.21C203.158 228.117 203.104 228.01 203.072 227.896C203.041 227.782 203.032 227.663 203.046 227.545C203.061 227.427 203.099 227.314 203.157 227.211C203.216 227.108 203.295 227.017 203.389 226.945C203.482 226.872 203.59 226.818 203.704 226.787C203.819 226.756 203.939 226.747 204.057 226.762C204.174 226.777 204.288 226.815 204.391 226.874C204.495 226.933 204.585 227.011 204.658 227.105L212.03 236.554C212.177 236.743 212.242 236.982 212.213 237.219C212.183 237.456 212.06 237.671 211.871 237.818C211.682 237.964 211.442 238.03 211.204 238C210.966 237.971 210.75 237.848 210.603 237.66Z" fill="#E4E4E4"/>
<path d="M206.802 256.204L179.955 221.789C179.882 221.696 179.828 221.589 179.796 221.475C179.764 221.36 179.755 221.241 179.77 221.124C179.785 221.006 179.822 220.893 179.881 220.79C179.94 220.687 180.018 220.596 180.112 220.523C180.206 220.451 180.313 220.397 180.428 220.366C180.543 220.334 180.662 220.326 180.78 220.341C180.898 220.356 181.012 220.394 181.115 220.452C181.218 220.511 181.309 220.59 181.381 220.683L208.229 255.098C208.302 255.191 208.356 255.298 208.388 255.412C208.42 255.526 208.428 255.646 208.414 255.763C208.399 255.881 208.362 255.994 208.303 256.097C208.244 256.2 208.166 256.291 208.072 256.363C207.978 256.436 207.871 256.49 207.756 256.521C207.641 256.552 207.522 256.561 207.404 256.546C207.286 256.531 207.172 256.493 207.069 256.434C206.966 256.376 206.875 256.297 206.802 256.204Z" fill="#E4E4E4"/>
<path d="M203.984 258.388L177.137 223.973C176.99 223.785 176.924 223.546 176.954 223.309C176.984 223.072 177.107 222.856 177.296 222.71C177.485 222.563 177.725 222.498 177.962 222.527C178.2 222.557 178.416 222.679 178.563 222.868L205.411 257.282C205.484 257.376 205.538 257.482 205.569 257.597C205.601 257.711 205.609 257.83 205.595 257.947C205.58 258.064 205.542 258.178 205.483 258.281C205.425 258.384 205.346 258.474 205.253 258.546C205.159 258.619 205.052 258.673 204.937 258.704C204.823 258.735 204.703 258.744 204.586 258.729C204.468 258.714 204.354 258.677 204.251 258.618C204.148 258.56 204.057 258.481 203.984 258.388Z" fill="#E4E4E4"/>
<path d="M197.586 263.346L170.738 228.932C170.665 228.838 170.611 228.732 170.579 228.618C170.547 228.503 170.539 228.384 170.553 228.267C170.568 228.149 170.606 228.035 170.664 227.932C170.723 227.829 170.802 227.739 170.895 227.666C170.989 227.594 171.096 227.54 171.211 227.509C171.326 227.477 171.445 227.469 171.563 227.484C171.681 227.499 171.795 227.537 171.898 227.595C172.001 227.654 172.092 227.733 172.165 227.826L199.012 262.241C199.085 262.334 199.139 262.441 199.17 262.555C199.202 262.669 199.211 262.788 199.196 262.906C199.181 263.023 199.143 263.136 199.085 263.239C199.026 263.342 198.948 263.432 198.854 263.505C198.76 263.578 198.653 263.631 198.539 263.662C198.424 263.694 198.305 263.702 198.187 263.688C198.069 263.673 197.955 263.635 197.852 263.577C197.749 263.518 197.658 263.44 197.586 263.346Z" fill="#E4E4E4"/>
<path d="M194.768 265.531L167.92 231.116C167.773 230.928 167.707 230.689 167.737 230.452C167.767 230.215 167.89 229.999 168.079 229.853C168.268 229.706 168.508 229.64 168.746 229.67C168.983 229.7 169.199 229.822 169.347 230.011L196.194 264.425C196.341 264.614 196.407 264.853 196.377 265.09C196.347 265.327 196.224 265.542 196.035 265.689C195.846 265.835 195.606 265.901 195.369 265.871C195.131 265.842 194.915 265.719 194.768 265.531Z" fill="#E4E4E4"/>
<path d="M188.369 270.489L161.522 236.075C161.449 235.981 161.395 235.875 161.363 235.761C161.332 235.647 161.323 235.527 161.338 235.41C161.353 235.293 161.39 235.179 161.449 235.076C161.508 234.974 161.586 234.883 161.68 234.811C161.774 234.738 161.881 234.685 161.995 234.653C162.11 234.622 162.229 234.613 162.347 234.628C162.465 234.643 162.578 234.68 162.682 234.739C162.785 234.798 162.875 234.876 162.948 234.969L189.796 269.384C189.869 269.477 189.922 269.584 189.954 269.698C189.985 269.812 189.994 269.931 189.979 270.049C189.965 270.166 189.927 270.279 189.868 270.382C189.81 270.485 189.731 270.575 189.637 270.648C189.544 270.721 189.437 270.774 189.322 270.805C189.208 270.837 189.088 270.845 188.97 270.831C188.853 270.816 188.739 270.778 188.636 270.72C188.533 270.661 188.442 270.583 188.369 270.489Z" fill="#E4E4E4"/>
<path d="M185.55 272.674L158.703 238.259C158.63 238.166 158.576 238.059 158.545 237.945C158.513 237.831 158.504 237.712 158.519 237.594C158.534 237.477 158.572 237.364 158.63 237.261C158.689 237.158 158.767 237.068 158.861 236.995C158.955 236.922 159.062 236.869 159.176 236.838C159.291 236.806 159.41 236.798 159.528 236.812C159.646 236.827 159.76 236.865 159.863 236.923C159.966 236.982 160.057 237.06 160.129 237.154L186.977 271.568C187.123 271.757 187.189 271.996 187.159 272.232C187.129 272.469 187.006 272.684 186.817 272.83C186.628 272.977 186.389 273.042 186.151 273.013C185.914 272.984 185.698 272.862 185.55 272.674Z" fill="#E4E4E4"/>
<path d="M231.69 312.799C231.895 312.799 232.061 312.634 232.061 312.429C232.061 312.225 231.895 312.06 231.69 312.06C231.485 312.06 231.319 312.225 231.319 312.429C231.319 312.634 231.485 312.799 231.69 312.799Z" fill="white"/>
<path d="M258.659 409.669H255.991V385.739C255.991 377.159 252.571 368.931 246.485 362.864C240.398 356.797 232.142 353.389 223.534 353.389C214.926 353.389 206.67 356.797 200.583 362.864C194.496 368.931 191.077 377.159 191.077 385.739V409.669H188.409V385.739C188.409 376.454 192.11 367.549 198.697 360.984C205.284 354.418 214.218 350.73 223.534 350.73C232.85 350.73 241.784 354.418 248.371 360.984C254.958 367.549 258.659 376.454 258.659 385.739V409.669Z" fill="#2F2E41"/>
<path d="M298.363 387.972C297.478 384.174 295.325 380.789 292.257 378.37C289.189 375.952 285.388 374.643 281.476 374.66H160.523C156.378 374.672 152.373 376.158 149.229 378.85C146.085 381.542 144.007 385.264 143.369 389.346C141.554 401.943 140.956 414.684 141.582 427.395C141.787 432.288 142.151 437.31 142.676 442.462C143.014 445.83 143.417 449.257 143.885 452.743C144.458 456.887 146.514 460.685 149.674 463.437C152.835 466.19 156.886 467.711 161.083 467.722H281.245C285.189 467.741 289.021 466.411 292.1 463.954C295.18 461.498 297.321 458.063 298.167 454.224C299.057 450.288 299.792 446.368 300.373 442.462C301.129 437.468 301.633 432.439 301.884 427.395C302.569 414.155 301.384 400.884 298.363 387.972Z" fill="#F9A826"/>
<path d="M258.659 402.135H255.991V378.205C255.991 369.625 252.571 361.397 246.485 355.33C240.398 349.263 232.142 345.855 223.534 345.855C214.926 345.855 206.67 349.263 200.583 355.33C194.496 361.397 191.077 369.625 191.077 378.205V402.135H188.409V378.205C188.409 368.92 192.11 360.016 198.697 353.45C205.284 346.885 214.218 343.196 223.534 343.196C232.85 343.196 241.784 346.885 248.371 353.45C254.958 360.016 258.659 368.92 258.659 378.205V402.135Z" fill="#2F2E41"/>
<path d="M225.785 381.378L221.338 373.703C220.926 372.935 220.291 372.31 219.516 371.908C218.741 371.506 217.863 371.346 216.995 371.45C216.128 371.553 215.312 371.915 214.654 372.487C213.996 373.06 213.527 373.817 213.308 374.66V383.523C213.308 384.346 213.636 385.135 214.219 385.717C214.803 386.298 215.594 386.625 216.42 386.625C217.245 386.625 218.037 386.298 218.621 385.717C219.204 385.135 219.532 384.346 219.532 383.523V382.993L220.394 384.48C220.807 385.193 221.486 385.713 222.284 385.926C223.081 386.139 223.931 386.027 224.645 385.616C225.36 385.204 225.882 384.527 226.096 383.732C226.309 382.938 226.197 382.091 225.785 381.378Z" fill="#2F2E41"/>
<path d="M190.632 407.453C193.579 407.453 195.968 405.072 195.968 402.135C195.968 399.198 193.579 396.818 190.632 396.818C187.686 396.818 185.297 399.198 185.297 402.135C185.297 405.072 187.686 407.453 190.632 407.453Z" fill="#2F2E41"/>
<path d="M256.88 407.896C259.827 407.896 262.215 405.516 262.215 402.579C262.215 399.642 259.827 397.261 256.88 397.261C253.933 397.261 251.544 399.642 251.544 402.579C251.544 405.516 253.933 407.896 256.88 407.896Z" fill="#2F2E41"/>
<path d="M301.884 427.395C301.633 432.44 301.128 437.468 300.372 442.462H142.675C142.151 437.304 141.786 432.282 141.582 427.395H301.884Z" fill="#3F3D56"/>
<path d="M114.602 51.6019C121.969 51.6019 127.941 45.6497 127.941 38.3074C127.941 30.965 121.969 25.0128 114.602 25.0128C107.236 25.0128 101.264 30.965 101.264 38.3074C101.264 45.6497 107.236 51.6019 114.602 51.6019Z" fill="#2F2E41"/>
<path d="M135.944 102.121C154.606 102.121 169.735 87.0424 169.735 68.4417C169.735 49.841 154.606 34.7621 135.944 34.7621C117.282 34.7621 102.153 49.841 102.153 68.4417C102.153 87.0424 117.282 102.121 135.944 102.121Z" fill="#2F2E41"/>
<path d="M118.548 576.663H134.448L142.016 515.536H118.548V576.663Z" fill="#9E616A"/>
<path d="M113.359 565.809L138.762 564.297V575.145L162.912 591.77C164.105 592.591 165.004 593.77 165.477 595.136C165.949 596.502 165.972 597.983 165.54 599.362C165.109 600.741 164.246 601.947 163.079 602.803C161.911 603.66 160.499 604.121 159.05 604.121H128.807L123.594 593.391L121.559 604.121H110.156L113.359 565.809Z" fill="#2F2E41"/>
<path d="M24.0845 556.663L36.8441 566.12L79.5122 521.568L60.6809 507.612L24.0845 556.663Z" fill="#9E616A"/>
<path d="M26.4193 544.867L47.7083 558.762L41.2139 567.467L50.6409 595.171C51.1067 596.539 51.1215 598.02 50.6831 599.397C50.2447 600.774 49.3761 601.976 48.204 602.826C47.032 603.677 45.618 604.131 44.1684 604.124C42.7187 604.116 41.3094 603.647 40.1462 602.785L15.878 584.798L18.1189 573.088L10.0617 580.487L0.911621 573.706L26.4193 544.867Z" fill="#2F2E41"/>
<path d="M170.624 238.612H110.156V295.336H170.624V238.612Z" fill="#9E616A"/>
<path d="M100.037 261.279C100.037 261.279 69.8685 287.257 83.7878 361.315L100.781 433.878L45.3613 525.516L63.0319 546.942L135.079 447.755L161.187 386.716L174.997 279.739L100.037 261.279Z" fill="#2F2E41"/>
<path d="M146.797 404.111L148.612 432.12L143.058 551.477L116.928 546.942L111.935 461.961L146.797 404.111Z" fill="#2F2E41"/>
<path d="M154.905 111.443L125.729 112.578L114.1 131.816L87.5718 136.978L103.409 216.834L87.7674 274.789L143.971 299.304L156.479 261.946L173.1 307.237L199.787 278.314L177.822 222.483L189.185 178.439L186.631 132.255L165.289 129.596L154.905 111.443Z" fill="#2F2E41"/>
<path d="M138.74 102.113C153.905 102.113 166.199 89.8597 166.199 74.7445C166.199 59.6293 153.905 47.376 138.74 47.376C123.575 47.376 111.281 59.6293 111.281 74.7445C111.281 89.8597 123.575 102.113 138.74 102.113Z" fill="#9E616A"/>
<path d="M157.388 46.8461C152.576 43.9224 147.065 42.3409 141.43 42.2669C135.795 42.1928 130.244 43.629 125.357 46.4252C120.469 49.2215 116.425 53.2751 113.648 58.1622C110.87 63.0493 109.461 68.5904 109.568 74.2061C123.559 77.7075 138.259 80.3869 153.18 75.0436L156.703 66.448L158.781 75.05C163.325 76.9012 167.881 78.4675 172.436 75.0321C172.623 69.4322 171.331 63.8818 168.69 58.9355C166.049 53.9893 162.152 49.8206 157.388 46.8461Z" fill="#2F2E41"/>
<path d="M102.184 2.21761C92.96 -1.99758 81.387 -0.0196824 73.707 6.58995C66.027 13.1996 62.3758 23.9569 63.8585 33.9618C65.371 44.1683 71.5964 52.9575 77.3348 61.5442C83.0732 70.131 88.6794 79.5402 88.673 89.8574C88.6685 97.2884 85.7073 104.414 80.439 109.672C75.1708 114.931 68.0254 117.892 60.5698 117.906C69.3201 121.661 78.4531 125.489 87.9694 125.044C97.4857 124.599 107.46 118.502 109.012 109.133C110.131 102.383 106.808 95.8003 104.037 89.5409C99.523 79.3414 96.2602 68.6364 94.3193 57.6578C93.3938 52.418 92.7911 46.9094 94.5051 41.8707C95.8699 38.1368 98.4025 34.9389 101.729 32.7486C105.056 30.5582 109.001 29.4914 112.982 29.7053L116.126 26.8858C117.525 16.8688 111.407 6.43275 102.184 2.21761Z" fill="#2F2E41"/>
<path d="M88.7303 312.176H62.4866C61.8946 312.174 61.3094 312.302 60.7721 312.549C60.2347 312.797 59.7581 313.159 59.3756 313.609C58.4076 313.432 57.4113 313.486 56.4683 313.767C55.5253 314.048 54.6627 314.547 53.9511 315.225C53.2395 315.903 52.6993 316.739 52.3748 317.665C52.0503 318.591 51.9509 319.581 52.0845 320.553C52.2182 321.524 52.5812 322.451 53.1437 323.256C53.7062 324.061 54.4522 324.721 55.3205 325.183C56.1888 325.645 57.1546 325.895 58.1386 325.912C59.1227 325.93 60.0969 325.715 60.9813 325.284L64.0471 350.947C64.305 351.782 64.8248 352.513 65.5302 353.032C66.2357 353.552 67.0896 353.832 67.9666 353.832H85.0292C85.9062 353.832 86.76 353.552 87.4654 353.032C88.1707 352.513 88.6905 351.782 88.9483 350.947L92.6498 317.465C92.8385 316.853 92.8806 316.206 92.7728 315.576C92.6649 314.946 92.4101 314.349 92.0289 313.835C91.6476 313.32 91.1506 312.902 90.5777 312.614C90.0048 312.326 89.372 312.176 88.7303 312.176ZM58.2684 324.141C57.0892 324.141 55.9583 323.674 55.1245 322.843C54.2906 322.012 53.8222 320.884 53.8222 319.709C53.8222 318.534 54.2906 317.407 55.1245 316.576C55.9583 315.744 57.0892 315.278 58.2684 315.278C58.3496 315.278 58.4251 315.297 58.5055 315.301C58.3286 316.015 58.3501 316.763 58.5676 317.465L60.4455 323.549C59.7839 323.932 59.0334 324.136 58.2684 324.141Z" fill="#F9A826"/>
<path d="M66.9205 353.855C67.9974 352.776 68.8239 351.475 69.3417 350.043C69.8596 348.612 70.0562 347.084 69.9177 345.569C69.7792 344.053 69.309 342.586 68.5402 341.271C67.7714 339.957 66.7228 338.826 65.4681 337.958L82.0972 255.635L63.7334 261.511L50.4226 341.139C49.1007 343.337 48.6334 345.941 49.1093 348.459C49.5852 350.977 50.9713 353.233 53.0049 354.801C55.0384 356.368 57.5782 357.137 60.143 356.963C62.7077 356.789 65.1192 355.683 66.9205 353.855Z" fill="#9E616A"/>
<path d="M98.9648 145.55L87.571 136.977C87.571 136.977 77.5198 136.268 75.7397 154.334C73.9596 172.401 62.8137 241.739 62.8137 241.739L45.3789 322.224L69.5134 327.504L88.1874 240.646L106.88 180.723L98.9648 145.55Z" fill="#2F2E41"/>
<path d="M197.301 220.489C200.863 220.489 203.751 217.611 203.751 214.061C203.751 210.511 200.863 207.632 197.301 207.632C193.739 207.632 190.852 210.511 190.852 214.061C190.852 217.611 193.739 220.489 197.301 220.489Z" fill="#F9A826"/>
<path d="M516.199 407.261L506.478 349.017C506.282 347.838 506.564 346.629 507.262 345.657C507.959 344.685 509.015 344.028 510.198 343.831L554.349 336.516C555.532 336.322 556.745 336.603 557.721 337.298C558.697 337.993 559.356 339.045 559.554 340.223L569.275 398.467C569.471 399.646 569.189 400.855 568.491 401.827C567.794 402.799 566.737 403.456 565.554 403.653L521.404 410.968C520.22 411.162 519.008 410.881 518.032 410.186C517.056 409.491 516.397 408.439 516.199 407.261Z" fill="#3F3D56"/>
<path d="M516.649 389.107L510.399 351.663C510.216 350.559 510.481 349.427 511.134 348.517C511.787 347.606 512.776 346.991 513.884 346.806L551.828 340.52C552.936 340.338 554.072 340.601 554.986 341.252C555.9 341.903 556.517 342.888 556.703 343.992L565.353 395.821C565.536 396.925 565.272 398.057 564.619 398.967C563.966 399.878 562.976 400.493 561.868 400.678L538.363 404.572C533.426 405.384 528.367 404.212 524.297 401.313C520.226 398.414 517.476 394.024 516.649 389.107Z" fill="white"/>
<path d="M518.287 361.093C518.108 360.014 518.366 358.908 519.004 358.018C519.643 357.129 520.609 356.528 521.692 356.347L548.014 351.986C548.55 351.897 549.099 351.915 549.628 352.037C550.158 352.159 550.658 352.385 551.101 352.7C551.543 353.015 551.919 353.413 552.206 353.873C552.494 354.333 552.688 354.844 552.777 355.379C552.866 355.913 552.849 356.46 552.726 356.988C552.603 357.515 552.377 358.014 552.061 358.454C551.745 358.895 551.345 359.269 550.883 359.556C550.422 359.843 549.908 360.036 549.372 360.125L523.05 364.485C521.967 364.664 520.858 364.407 519.964 363.77C519.071 363.134 518.468 362.172 518.287 361.093Z" fill="#F9A826"/>
<path d="M520.4 373.753C520.221 372.674 520.479 371.568 521.117 370.678C521.756 369.788 522.722 369.187 523.805 369.007L550.126 364.646C550.663 364.557 551.211 364.575 551.741 364.697C552.271 364.819 552.771 365.044 553.213 365.359C553.656 365.674 554.031 366.073 554.319 366.533C554.607 366.993 554.801 367.504 554.89 368.039C554.979 368.573 554.962 369.12 554.839 369.647C554.716 370.175 554.49 370.674 554.174 371.114C553.858 371.555 553.457 371.929 552.996 372.216C552.535 372.502 552.021 372.696 551.485 372.785L525.163 377.145C524.08 377.324 522.97 377.066 522.077 376.43C521.184 375.794 520.581 374.831 520.4 373.753Z" fill="#F9A826"/>
<path d="M522.512 386.413C522.334 385.333 522.592 384.228 523.23 383.338C523.868 382.448 524.835 381.847 525.918 381.667L552.239 377.306C553.322 377.126 554.433 377.383 555.326 378.019C556.219 378.655 556.823 379.619 557.003 380.698C557.183 381.778 556.925 382.884 556.287 383.774C555.648 384.664 554.681 385.265 553.597 385.444L527.276 389.805C526.193 389.983 525.083 389.726 524.19 389.09C523.297 388.454 522.694 387.491 522.512 386.413Z" fill="#F9A826"/>
<path d="M496.264 352.364C495.114 351.075 494.262 349.55 493.767 347.897C493.273 346.244 493.148 344.503 493.402 342.797C493.656 341.091 494.282 339.461 495.237 338.022C496.191 336.583 497.451 335.37 498.927 334.469L483.527 261.411L503.938 269.23L515.755 339.025C517.111 341.596 517.473 344.573 516.772 347.392C516.072 350.211 514.359 352.676 511.956 354.32C509.553 355.964 506.629 356.673 503.737 356.313C500.845 355.952 498.186 354.547 496.264 352.364Z" fill="#FFB8B8"/>
<path d="M489.469 583.43L506.269 583.429L514.262 518.865L489.466 518.866L489.469 583.43Z" fill="#FFB6B6"/>
<path d="M485.183 577.964L489.912 577.964L508.375 570.483L518.27 577.963H518.272C523.864 577.963 529.227 580.176 533.181 584.116C537.135 588.056 539.357 593.399 539.357 598.97V599.653L485.184 599.655L485.183 577.964Z" fill="#2F2E41"/>
<path d="M337.662 561.666L352.698 569.133L388.76 514.902L366.567 503.883L337.662 561.666Z" fill="#FFB6B6"/>
<path d="M336.273 554.871L340.505 556.972L360.378 558.483L365.886 569.575L365.887 569.576C370.892 572.061 374.7 576.426 376.476 581.709C378.251 586.992 377.847 592.762 375.352 597.748L375.047 598.359L326.562 574.284L336.273 554.871Z" fill="#2F2E41"/>
<path d="M496.912 290.204L390.087 292.98L391.945 344.807C391.945 344.807 390.087 358.689 393.803 362.391C397.519 366.093 399.376 366.093 397.519 372.571C395.661 379.049 390.858 440.947 390.858 440.947C390.858 440.947 347.014 518.184 348.872 520.035C350.729 521.886 352.587 520.035 350.729 524.662C348.872 529.29 347.014 527.439 348.872 529.29C350.517 531.057 352.068 532.911 353.516 534.842H383.795C383.795 534.842 385.489 525.588 385.489 524.662C385.489 523.737 387.346 518.184 387.346 517.258C387.346 516.333 440.249 460.491 440.249 460.491L451.395 367.944L478.334 458.64C478.334 458.64 478.334 538.23 480.192 540.081C482.05 541.932 482.05 541.007 481.121 544.709C480.192 548.411 476.476 547.485 479.263 550.262C482.05 553.038 482.979 548.411 482.05 553.038L481.121 557.665L516.809 558.062C516.809 558.062 520.524 550.262 518.667 547.485C516.809 544.709 516.92 545.467 519.187 540.923C521.453 536.379 522.382 535.454 521.453 534.529C520.524 533.603 520.524 528.681 520.524 528.681C520.524 528.681 507.13 346.658 507.13 343.881C507.06 342.453 507.324 341.027 507.902 339.718V335.949L504.344 322.596L496.912 290.204Z" fill="#2F2E41"/>
<path d="M441.599 108.449L495.107 216.261L484.638 347.104L416.263 340.88L404.002 124.194L441.599 108.449Z" fill="#2F2E41"/>
<path d="M516.733 332.66L485.467 329.812L485.418 329.417L464.436 156.329L469.132 143.359C470.255 140.279 472.159 137.542 474.659 135.412C477.158 133.283 480.168 131.833 483.396 131.205C485.855 130.734 488.383 130.751 490.835 131.257C493.287 131.763 495.615 132.747 497.683 134.153C499.752 135.559 501.521 137.359 502.888 139.449C504.255 141.539 505.194 143.879 505.65 146.332L511.265 176.549L519.231 278.693L516.733 332.66Z" fill="#2F2E41"/>
<path d="M435.328 124.437L441.634 109.406L461.15 109.747L481.501 138.427L502.861 227.922C502.861 227.922 510.533 293.298 502.861 296.749C495.189 300.201 469.186 295.939 469.186 295.939L435.328 124.437Z" fill="#F9A826"/>
<path d="M461.15 109.747C461.15 109.747 503.191 133.959 504.835 146.598C506.48 159.237 511.985 313.927 511.985 313.927L497.118 304.356L493.055 247.977L474.911 132.547L461.15 109.747Z" fill="#2F2E41"/>
<path d="M451.226 102.705C467.05 102.705 479.878 89.9245 479.878 74.159C479.878 58.3935 467.05 45.613 451.226 45.613C435.402 45.613 422.574 58.3935 422.574 74.159C422.574 89.9245 435.402 102.705 451.226 102.705Z" fill="#FFB8B8"/>
<path d="M418.726 55.4024C421.944 50.4435 427.981 47.1384 433.834 48.0672C434.379 44.3458 435.938 40.8446 438.342 37.9448C440.745 35.0451 443.902 32.858 447.466 31.6216C451.031 30.3852 454.869 30.1469 458.56 30.9328C462.251 31.7186 465.656 33.4984 468.402 36.0783C469.305 35.4447 470.357 35.0543 471.457 34.9447C472.556 34.8351 473.665 35.0101 474.676 35.4528C476.69 36.3653 478.443 37.7668 479.773 39.5289C483.131 43.7016 485.291 48.7036 486.023 54.0023C486.754 59.3011 486.03 64.6983 483.927 69.6194C484.642 67.0287 482.036 64.5914 479.403 64.01C476.77 63.4286 474.008 63.9786 471.338 63.6C467.916 63.1149 464.84 61.137 461.412 60.6918C458.532 60.3177 455.635 61.0536 452.826 61.7911C450.016 62.5286 447.127 63.2808 444.242 62.9395C441.357 62.5982 437.641 73.4905 437.691 81.1623C437.701 82.6161 437.4 84.4828 435.974 84.7912C434.218 85.1711 433.2 82.7562 431.528 82.0982C430.758 81.8782 429.932 81.9647 429.224 82.3396C428.517 82.7145 427.983 83.3484 427.735 84.1078C427.525 84.8798 427.502 85.6907 427.67 86.4731C427.837 87.2556 428.19 87.9868 428.698 88.6061C429.725 89.8337 430.945 90.8879 432.31 91.728L431.622 92.2984C430.477 93.8057 428.101 93.871 426.45 92.9385C424.872 91.8735 423.594 90.4234 422.738 88.7266C419.684 83.6663 417.005 78.2746 415.928 72.4684C414.85 66.6622 415.509 60.3614 418.726 55.4024Z" fill="#2F2E41"/>
<path d="M356.317 266.812L413.56 205.626C414.72 204.389 416.326 203.661 418.024 203.601C419.722 203.542 421.375 204.156 422.619 205.309L469 248.38C470.242 249.535 470.972 251.135 471.032 252.827C471.092 254.519 470.475 256.165 469.318 257.405L412.075 318.591C410.915 319.828 409.31 320.556 407.612 320.615C405.914 320.675 404.261 320.061 403.017 318.908L356.636 275.837C355.394 274.681 354.663 273.082 354.604 271.39C354.544 269.698 355.16 268.052 356.317 266.812Z" fill="#E6E6E6"/>
<path d="M377.165 251.635L413.966 212.299C415.053 211.141 416.556 210.459 418.146 210.403C419.737 210.347 421.284 210.922 422.45 212.002L462.31 249.018C463.473 250.1 464.158 251.598 464.214 253.183C464.27 254.767 463.692 256.309 462.609 257.47L411.67 311.918C410.584 313.076 409.08 313.758 407.49 313.814C405.899 313.869 404.352 313.294 403.186 312.214L378.494 289.284C373.314 284.463 370.265 277.791 370.016 270.733C369.767 263.675 372.338 256.807 377.165 251.635Z" fill="white"/>
<path d="M410.152 229.268C411.213 228.136 412.682 227.469 414.236 227.415C415.791 227.36 417.303 227.922 418.442 228.978L446.093 254.656C447.231 255.712 447.901 257.176 447.956 258.725C448.01 260.274 447.445 261.781 446.384 262.915C445.324 264.049 443.854 264.716 442.3 264.771C440.745 264.825 439.232 264.262 438.094 263.205L410.443 237.527C409.307 236.47 408.638 235.006 408.583 233.458C408.529 231.909 409.093 230.402 410.152 229.268Z" fill="#E6E6E6"/>
<path d="M397.709 242.567C398.771 241.435 400.24 240.769 401.794 240.714C403.348 240.66 404.861 241.222 405.999 242.277L433.651 267.955C434.214 268.478 434.669 269.107 434.988 269.805C435.308 270.503 435.486 271.257 435.513 272.024C435.54 272.791 435.415 273.556 435.146 274.275C434.876 274.994 434.467 275.653 433.942 276.214C433.417 276.776 432.786 277.228 432.085 277.547C431.384 277.865 430.627 278.043 429.857 278.07C429.088 278.097 428.32 277.972 427.598 277.704C426.877 277.435 426.215 277.028 425.652 276.505L398.001 250.827C396.864 249.769 396.195 248.305 396.141 246.757C396.086 245.209 396.65 243.702 397.709 242.567Z" fill="#E6E6E6"/>
<path d="M385.268 255.867C386.329 254.735 387.798 254.068 389.352 254.014C390.906 253.959 392.419 254.521 393.558 255.576L421.209 281.254C422.347 282.311 423.017 283.775 423.071 285.324C423.126 286.873 422.561 288.38 421.5 289.514C420.439 290.647 418.97 291.315 417.415 291.369C415.861 291.424 414.348 290.861 413.21 289.804L385.559 264.126C384.422 263.068 383.754 261.605 383.699 260.056C383.644 258.508 384.208 257.001 385.268 255.867Z" fill="#E6E6E6"/>
<path d="M452.546 328.796L432.755 357.028L431.833 358.135C430.23 360.056 428.016 361.373 425.558 361.867C425.21 361.937 424.861 361.989 424.51 362.023C424.076 362.068 423.641 362.085 423.205 362.077C422.955 362.072 422.706 362.059 422.458 362.037C421.014 361.913 419.609 361.505 418.325 360.837L409.881 354.962C409.209 354.495 408.729 353.801 408.531 353.009C408.433 352.617 408.405 352.211 408.449 351.81C408.511 351.247 408.714 350.709 409.04 350.245L433.409 315.481C433.927 314.745 434.716 314.243 435.603 314.086C436.491 313.929 437.405 314.129 438.145 314.643L451.705 324.078C451.737 324.1 451.768 324.122 451.8 324.145C451.82 324.161 451.84 324.176 451.859 324.192C451.887 324.212 451.913 324.234 451.938 324.255C451.972 324.282 452.003 324.309 452.035 324.337C452.063 324.363 452.092 324.39 452.119 324.416L452.136 324.432C452.171 324.466 452.206 324.501 452.24 324.537C452.273 324.572 452.307 324.609 452.338 324.646C452.361 324.672 452.384 324.7 452.407 324.727L452.409 324.73C452.474 324.811 452.536 324.896 452.594 324.983C452.612 325.01 452.629 325.038 452.646 325.065L452.654 325.077C452.668 325.099 452.681 325.121 452.694 325.144C452.733 325.211 452.77 325.279 452.805 325.349C452.862 325.465 452.913 325.583 452.956 325.704C452.971 325.743 452.983 325.782 452.995 325.821C453.006 325.853 453.016 325.885 453.025 325.919L453.027 325.926L453.031 325.939C453.04 325.967 453.047 325.996 453.054 326.024C453.068 326.078 453.08 326.133 453.091 326.188C453.095 326.203 453.098 326.218 453.101 326.234C453.104 326.249 453.106 326.264 453.109 326.28C453.112 326.295 453.114 326.31 453.117 326.324L453.121 326.349C453.128 326.393 453.134 326.438 453.138 326.483C453.145 326.539 453.15 326.596 453.152 326.651C453.155 326.698 453.157 326.744 453.158 326.79C453.159 326.832 453.159 326.873 453.158 326.915C453.159 326.925 453.158 326.936 453.157 326.947C453.157 326.99 453.154 327.032 453.152 327.075C453.146 327.183 453.133 327.29 453.116 327.396C453.109 327.436 453.103 327.474 453.095 327.513C453.086 327.561 453.075 327.607 453.064 327.654C453.06 327.671 453.055 327.689 453.051 327.706C453.044 327.732 453.037 327.757 453.03 327.783C453.021 327.811 453.013 327.84 453.004 327.868L452.982 327.935C452.969 327.975 452.954 328.014 452.94 328.053C452.931 328.077 452.922 328.1 452.911 328.124C452.843 328.292 452.762 328.455 452.667 328.61C452.655 328.629 452.644 328.648 452.632 328.667C452.604 328.711 452.576 328.753 452.546 328.796Z" fill="white"/>
<path d="M439.143 329.868C440.748 329.868 442.048 328.572 442.048 326.973C442.048 325.375 440.748 324.079 439.143 324.079C437.539 324.079 436.238 325.375 436.238 326.973C436.238 328.572 437.539 329.868 439.143 329.868Z" fill="#F9A826"/>
<path d="M406.326 357.558C405.176 356.269 404.324 354.744 403.829 353.091C403.335 351.438 403.21 349.697 403.464 347.991C403.718 346.285 404.344 344.655 405.299 343.216C406.253 341.777 407.513 340.565 408.989 339.663L393.589 266.606L414 274.424L425.817 344.22C427.173 346.791 427.535 349.767 426.834 352.586C426.134 355.405 424.421 357.87 422.018 359.514C419.615 361.159 416.691 361.868 413.799 361.507C410.907 361.147 408.248 359.742 406.326 357.558Z" fill="#FFB8B8"/>
<path d="M395.017 327.913L386.71 274.588L383.588 172.174L385.908 141.478C386.096 138.99 386.777 136.564 387.91 134.34C389.044 132.115 390.608 130.136 392.513 128.516C394.417 126.897 396.625 125.668 399.008 124.902C401.391 124.137 403.903 123.848 406.399 124.054C409.676 124.332 412.824 125.45 415.539 127.299C418.254 129.148 420.443 131.666 421.893 134.607L427.962 146.998L425.795 321.729L395.017 327.913Z" fill="#2F2E41"/>
<path d="M428.789 85.7296C428.807 85.4064 428.905 85.0925 429.073 84.8158C429.242 84.539 429.476 84.3079 429.756 84.1427C430.035 83.9776 430.351 83.8836 430.676 83.869C431.001 83.8544 431.324 83.9197 431.617 84.059C431.91 84.1984 432.165 84.4075 432.358 84.668C432.551 84.9285 432.676 85.2323 432.723 85.5527C432.771 85.873 432.738 86.1999 432.628 86.5047C432.518 86.8094 432.335 87.0825 432.094 87.2999L435.421 92.7461C435.557 92.9694 435.599 93.2377 435.537 93.4917C435.475 93.7458 435.314 93.9649 435.09 94.1008C434.866 94.2368 434.596 94.2784 434.341 94.2166C434.086 94.1547 433.866 93.9945 433.73 93.7712L429.99 87.6476C429.616 87.4898 429.3 87.2209 429.085 86.8777C428.87 86.5344 428.767 86.1335 428.789 85.7296Z" fill="white"/>
<path d="M431.124 89.432C431.247 89.6751 431.544 89.7728 431.788 89.6502C432.032 89.5276 432.13 89.2311 432.007 88.988L431.116 87.2274C430.993 86.9843 430.695 86.8867 430.451 87.0093C430.207 87.1319 430.109 87.4283 430.232 87.6714L431.124 89.432Z" fill="#2F2E41"/>
</svg>
