<svg width="1090" height="671" viewBox="0 0 1090 671" fill="none" xmlns="http://www.w3.org/2000/svg">
<path d="M314.163 647.766L323.675 647.764L328.201 602.707H314.16L314.163 647.766Z" fill="#FFB6B6"/>
<path d="M310.941 642.003L325.979 640.901V648.813L340.275 660.938C340.982 661.537 341.513 662.397 341.793 663.393C342.073 664.389 342.086 665.469 341.831 666.475C341.576 667.482 341.065 668.361 340.374 668.985C339.682 669.61 338.847 669.947 337.989 669.947H320.086L317 662.121L315.795 669.947H309.045L310.941 642.003Z" fill="#2F2E41"/>
<path d="M259.158 647.766L268.672 647.764L273.197 602.707H259.157L259.158 647.766Z" fill="#FFB6B6"/>
<path d="M255.937 642.003L270.975 640.901V648.813L285.272 660.938C285.978 661.537 286.51 662.397 286.79 663.393C287.07 664.389 287.083 665.469 286.827 666.475C286.572 667.482 286.061 668.361 285.37 668.985C284.679 669.61 283.843 669.947 282.985 669.947H265.082L261.996 662.121L260.791 669.947H254.041L255.937 642.003Z" fill="#2F2E41"/>
<path d="M358.955 671C326.065 671 293.224 670.277 260.432 668.831C213.577 666.764 165.126 664.628 120.093 633.957C88.59 612.503 60.6895 578.081 39.4082 534.412C25.1841 504.813 14.7545 472.702 8.48546 439.207C-3.20863 378.224 -2.81031 314.685 9.64692 253.931C14.0124 233.101 20.0305 212.847 27.6149 193.459C60.4558 109.946 120.355 53.8857 191.955 39.6542C192.546 39.56 193.144 39.5443 193.738 39.6074C194.06 39.6286 194.381 39.6513 194.708 39.6345L195.13 39.47C196.21 39.0091 197.319 38.6595 198.446 38.4249C308.872 18.2375 425.607 59.0837 536.025 156.545C621.399 231.911 734.545 272.495 881.927 280.615L884.02 280.75C925.048 283.644 964.734 304.415 998.792 340.822C1032.41 376.754 1057.65 424.695 1071.78 479.463C1073.52 486.141 1075.12 493.091 1076.52 500.121C1077.83 506.654 1077.73 513.491 1076.25 519.967C1074.77 526.444 1071.95 532.338 1068.06 537.078V537.091L1067.69 537.555C1066.81 538.633 1065.88 539.668 1064.93 540.632L1063.81 541.763C1054.39 551.291 1046.95 558.817 1038.05 564.663C1032.11 568.535 1025.8 571.463 1019.26 573.376C983.341 584.129 946.868 594.098 910.851 603.008C840.905 620.327 769.115 634.614 697.477 645.471C585.168 662.476 472.114 671.002 358.955 671ZM192.901 42.5653C192.681 42.5627 192.461 42.5811 192.243 42.6201C121.313 56.7186 61.9807 112.228 29.4654 194.915C21.9559 214.11 15.9973 234.164 11.6752 254.788C-0.668504 315.003 -1.06186 377.978 10.5282 438.419C16.7358 471.594 27.0644 503.398 41.1512 532.713C62.2241 575.955 89.8393 610.031 121.012 631.258C165.641 661.655 213.863 663.782 260.498 665.837C406.356 672.237 552.397 664.432 697.251 642.495C768.843 631.644 840.586 617.367 910.486 600.059C946.479 591.155 982.926 581.194 1018.82 570.447C1025.2 568.582 1031.36 565.725 1037.16 561.947C1045.88 556.22 1053.25 548.765 1062.58 539.328L1063.7 538.198C1064.51 537.369 1065.32 536.483 1066.08 535.562L1066.3 535.279C1073.97 525.791 1076.95 513.272 1074.48 500.935V500.934C1073.09 493.979 1071.52 487.103 1069.8 480.494C1040.92 368.612 966.222 289.545 883.918 283.74L881.837 283.606C814.515 279.896 755.603 269.62 701.742 252.187C637.445 231.378 581.313 200.053 534.904 159.084C424.907 61.9962 308.659 21.302 198.716 41.3937C197.689 41.6112 196.678 41.9329 195.695 42.3555L194.935 42.6164C194.504 42.6401 194.072 42.6338 193.641 42.5974C193.387 42.5814 193.141 42.5653 192.901 42.5653Z" fill="#F0F0F0"/>
<path d="M340.468 218.62C337.423 215.033 334.309 195.028 330.421 192.997C333.327 200.883 331.217 202.971 331.202 211.626C331.238 216.54 330.771 221.441 329.811 226.212H263.96V163.103C263.96 157.432 264.87 151.817 266.637 146.579C268.404 141.34 270.994 136.58 274.259 132.57C277.524 128.56 281.4 125.38 285.667 123.21C289.933 121.04 294.505 119.923 299.123 119.923C300.885 119.965 302.636 120.28 304.335 120.86C309.995 122.737 315.154 126.408 319.293 131.506C323.433 136.604 326.409 142.949 327.921 149.904C332.941 172.437 340.925 209.944 340.468 218.62Z" fill="#2F2E41"/>
<path d="M267.824 296.256L267.857 247.066L244.31 249.65L252.62 280.674L248.731 358.653C246.845 359.173 245.123 360.355 243.774 362.056C242.426 363.758 241.509 365.904 241.137 368.233C240.765 370.563 240.952 372.975 241.677 375.176C242.402 377.377 243.632 379.271 245.219 380.628C246.805 381.984 248.679 382.745 250.611 382.817C252.543 382.889 254.451 382.269 256.101 381.032C257.751 379.796 259.073 377.997 259.905 375.854C260.737 373.711 261.043 371.317 260.786 368.964L267.824 296.256Z" fill="#FFB6B6"/>
<path d="M305.692 193.946L285.985 194.42L272.075 212.451L260.923 214.46C255.878 215.368 251.24 218.376 247.784 222.979C244.328 227.583 242.264 233.504 241.936 239.752L243.868 252.784H255.46L262.166 301.136C259.558 309.295 259.381 315.736 264.733 318.265L281.348 356.7L330.421 329.654C332.91 324.399 333.707 319.122 331.164 313.99L334.672 239.972H346.468C346.468 226.129 342.654 214.458 331.451 212.918C327.002 212.326 322.531 212.012 318.056 211.977L305.692 193.946Z" fill="#E6E6E6"/>
<path d="M330.421 329.653C330.421 329.653 282.508 340.093 264.733 318.265C264.733 318.265 262.929 322.027 260.209 328.266C259.427 330.061 257.917 331.276 257.005 333.449C256.176 335.425 254.044 337.853 253.141 340.093C252.415 341.895 253.58 344.251 252.824 346.198C243.722 369.643 233.087 402.716 235.367 424.554C236.837 438.637 239.874 471.407 243.072 506.604C243.322 509.354 241.298 512.887 241.549 515.659C241.786 518.272 244.298 520.125 244.535 522.744C244.692 524.484 242.938 526.258 243.095 527.996C243.267 529.902 245.35 531.771 245.521 533.669C249.902 582.268 253.914 627.641 253.914 627.641H276.325L280.554 524.014L277.098 486.239L285.212 409.845L296.418 482.443L297.86 523.303L309.702 629.539H330.421V526.696L331.967 521.353L330.421 514.5L331.967 507.118L330.421 499.077V329.653Z" fill="#2F2E41"/>
<path d="M311.74 179.912C308.688 184.892 304.345 188.446 299.428 189.99C294.51 191.534 289.311 190.976 284.687 188.407C280.062 185.837 276.288 181.411 273.986 175.856C271.684 170.301 270.991 163.949 272.022 157.846C273.052 151.743 275.744 146.252 279.655 142.279C283.566 138.306 288.462 136.087 293.537 135.987C298.612 135.887 303.563 137.913 307.575 141.731C311.588 145.548 314.422 150.93 315.61 156.989C315.675 157.318 315.729 157.645 315.782 157.984C316.409 161.782 316.374 165.701 315.677 169.481C314.981 173.261 313.639 176.816 311.74 179.912Z" fill="#FFB6B6"/>
<path d="M307.083 164.261C306.609 161.34 305.41 158.671 303.652 156.621C303.825 159.42 303.509 162.232 302.724 164.868C296.849 165.507 290.948 164.071 285.715 160.73C281.774 157.447 276.758 157.732 270.916 160.73C270.915 157.241 271.475 153.785 272.562 150.561C273.649 147.337 275.243 144.408 277.253 141.94C279.262 139.473 281.648 137.515 284.273 136.18C286.899 134.845 289.713 134.158 292.554 134.158H296.418C302.157 134.159 307.66 136.959 311.718 141.942C315.776 146.925 318.056 153.683 318.057 160.73C314.49 162.301 310.818 163.482 307.083 164.261Z" fill="#2F2E41"/>
<path d="M534.179 152.676C568.511 152.676 596.343 118.498 596.343 76.3381C596.343 34.1777 568.511 0 534.179 0C499.847 0 472.015 34.1777 472.015 76.3381C472.015 118.498 499.847 152.676 534.179 152.676Z" fill="#F0F0F0"/>
<path d="M1027.84 514.908C1062.17 514.908 1090 480.73 1090 438.57C1090 396.409 1062.17 362.232 1027.84 362.232C993.504 362.232 965.672 396.409 965.672 438.57C965.672 480.73 993.504 514.908 1027.84 514.908Z" fill="#F0F0F0"/>
<path d="M646.318 84.6631V257.765C646.319 261.361 645.164 264.811 643.104 267.367C641.045 269.923 638.247 271.377 635.32 271.415C635.279 271.42 635.239 271.422 635.198 271.421H618.792C605.665 271.421 593.075 265.017 583.793 253.619C574.511 242.22 569.296 226.76 569.296 210.64V84.6631C569.296 81.0412 570.468 77.5678 572.553 75.0067C574.639 72.4457 577.467 71.007 580.417 71.007H587.065C583.985 82.0395 625.784 86.6844 628.078 71.007H635.198C638.147 71.007 640.976 72.4458 643.061 75.0068C645.147 77.5678 646.318 81.0413 646.318 84.6631Z" fill="#FF9900"/>
<path d="M638.603 293.378H575.932C571.069 293.371 566.408 290.996 562.969 286.774C559.531 282.552 557.597 276.828 557.591 270.857V149.851C557.247 149.548 556.967 149.148 556.774 148.685C556.581 148.222 556.48 147.709 556.481 147.189V135.019C556.48 134.499 556.581 133.986 556.774 133.523C556.967 133.06 557.247 132.66 557.591 132.357V129.091C557.247 128.788 556.967 128.388 556.774 127.925C556.581 127.462 556.48 126.949 556.481 126.429V114.259C556.48 113.738 556.581 113.226 556.774 112.763C556.967 112.3 557.247 111.9 557.591 111.597V105.694C557.167 105.413 556.812 104.996 556.565 104.488C556.318 103.979 556.188 103.397 556.189 102.805V90.6354C556.188 90.043 556.318 89.4613 556.565 88.9524C556.812 88.4435 557.166 88.0266 557.591 87.7462V71.5705C557.597 65.5996 559.531 59.8752 562.969 55.6532C566.408 51.4311 571.069 49.0563 575.931 49.0496H638.603C643.465 49.0563 648.127 51.4312 651.565 55.6533C655.003 59.8753 656.937 65.5997 656.942 71.5706V106.83C657.273 107.084 657.545 107.436 657.734 107.855C657.923 108.273 658.022 108.744 658.022 109.222V132.427C658.022 132.906 657.923 133.376 657.734 133.795C657.545 134.214 657.273 134.566 656.942 134.82V270.857C656.937 276.827 655.003 282.552 651.565 286.774C648.127 290.996 643.465 293.371 638.603 293.378ZM575.931 52.0432C571.715 52.049 567.674 54.1082 564.692 57.769C561.711 61.4299 560.034 66.3934 560.029 71.5706V90.2926L558.857 90.3482C558.796 90.3509 558.738 90.3821 558.695 90.4356C558.653 90.489 558.628 90.5605 558.627 90.6354V102.805C558.628 102.88 558.653 102.951 558.695 103.005C558.738 103.058 558.796 103.089 558.857 103.092L560.029 103.147V113.699L559.102 113.979C559.051 113.995 559.005 114.03 558.972 114.081C558.938 114.131 558.92 114.194 558.919 114.259V126.429C558.92 126.494 558.938 126.556 558.972 126.607C559.005 126.657 559.051 126.693 559.102 126.708L560.029 126.989V134.459L559.102 134.74C559.051 134.755 559.005 134.791 558.972 134.841C558.938 134.892 558.92 134.954 558.919 135.019V147.189C558.92 147.254 558.938 147.316 558.971 147.367C559.005 147.418 559.05 147.453 559.102 147.469L560.029 147.749V270.857C560.034 276.034 561.711 280.997 564.692 284.658C567.674 288.319 571.715 290.378 575.931 290.384H638.603C642.819 290.378 646.861 288.319 649.842 284.658C652.823 280.997 654.5 276.034 654.504 270.857V132.257H655.584V109.393H654.504V71.5705C654.5 66.3934 652.823 61.4299 649.842 57.7691C646.861 54.1083 642.819 52.0491 638.603 52.0432L575.931 52.0432Z" fill="#3F3D56"/>
<path d="M297.505 404.746H134.431C132.116 404.738 129.896 403.606 128.259 401.595C126.621 399.584 125.698 396.859 125.692 394.015V296.439C125.698 293.595 126.62 290.869 128.258 288.858C129.895 286.847 132.114 285.714 134.43 285.706H297.504C299.82 285.714 302.039 286.847 303.677 288.857C305.315 290.868 306.237 293.593 306.244 296.437V394.014C306.238 396.857 305.315 399.583 303.678 401.594C302.04 403.605 299.821 404.738 297.505 404.746Z" fill="white"/>
<path d="M297.505 404.746H134.431C132.116 404.738 129.896 403.606 128.259 401.595C126.621 399.584 125.698 396.859 125.692 394.015V296.439C125.698 293.595 126.62 290.869 128.258 288.858C129.895 286.847 132.114 285.714 134.43 285.706H297.504C299.82 285.714 302.039 286.847 303.677 288.857C305.315 290.868 306.237 293.593 306.244 296.437V394.014C306.238 396.857 305.315 399.583 303.678 401.594C302.04 403.605 299.821 404.738 297.505 404.746ZM134.431 288.7C132.761 288.706 131.161 289.524 129.981 290.974C128.8 292.424 128.134 294.389 128.13 296.44V394.014C128.135 396.064 128.8 398.029 129.981 399.479C131.162 400.929 132.763 401.747 134.433 401.752H297.503C299.173 401.746 300.774 400.929 301.955 399.479C303.136 398.029 303.801 396.063 303.806 394.012V296.439C303.801 294.388 303.135 292.423 301.954 290.973C300.773 289.523 299.173 288.706 297.503 288.7L134.431 288.7Z" fill="#3F3D56"/>
<path d="M224.709 390.326C192.547 390.326 159.011 389.948 146.498 389.703C144.852 389.662 143.284 388.831 142.13 387.39C140.975 385.948 140.325 384.009 140.319 381.987V301.216C140.32 300.492 140.554 299.798 140.97 299.285C141.387 298.772 141.952 298.483 142.541 298.48H289.39C289.979 298.481 290.544 298.769 290.962 299.28C291.379 299.791 291.615 300.485 291.617 301.209V356.01C291.589 364.956 288.708 373.532 283.591 379.899C278.473 386.266 271.528 389.916 264.244 390.066C252.582 390.253 238.773 390.326 224.709 390.326Z" fill="#FF9900"/>
<path d="M280.673 350.976H147.984C146.873 350.972 145.789 350.548 144.881 349.762C143.973 348.976 143.284 347.865 142.908 346.582L127.89 294.842C127.6 293.844 127.51 292.775 127.627 291.726C127.743 290.676 128.063 289.676 128.56 288.81C129.056 287.944 129.715 287.236 130.48 286.748C131.245 286.259 132.095 286.002 132.957 286L298.817 285.717C299.605 285.716 300.384 285.927 301.099 286.336C301.813 286.745 302.446 287.341 302.953 288.083C303.46 288.825 303.828 289.694 304.031 290.629C304.235 291.565 304.268 292.544 304.13 293.497L304.258 293.563L303.782 294.928L303.777 294.942L285.622 346.965C285.208 348.156 284.518 349.171 283.638 349.884C282.759 350.597 281.727 350.977 280.673 350.976ZM298.824 288.71L132.962 288.994C132.49 288.995 132.024 289.135 131.605 289.403C131.186 289.671 130.825 290.058 130.553 290.533C130.281 291.007 130.106 291.555 130.042 292.13C129.978 292.705 130.027 293.29 130.186 293.837L145.204 345.574C145.41 346.278 145.788 346.886 146.285 347.317C146.783 347.748 147.377 347.98 147.985 347.982H280.673C281.25 347.982 281.814 347.775 282.296 347.384C282.777 346.994 283.155 346.438 283.381 345.786L301.537 293.762C301.73 293.211 301.808 292.61 301.764 292.012C301.721 291.415 301.557 290.84 301.288 290.339C301.019 289.839 300.654 289.428 300.224 289.143C299.793 288.859 299.313 288.71 298.824 288.71Z" fill="#3F3D56"/>
<path d="M215.721 362.238C221.459 362.238 226.111 356.526 226.111 349.479C226.111 342.432 221.459 336.72 215.721 336.72C209.982 336.72 205.331 342.432 205.331 349.479C205.331 356.526 209.982 362.238 215.721 362.238Z" fill="white"/>
<path d="M608.208 251.473C613.946 251.473 618.598 245.76 618.598 238.714C618.598 231.667 613.946 225.955 608.208 225.955C602.47 225.955 597.818 231.667 597.818 238.714C597.818 245.76 602.47 251.473 608.208 251.473Z" fill="white"/>
<path d="M1001.18 423.781L973.424 390.133C972.073 388.482 970.47 387.174 968.706 386.286C966.943 385.397 965.055 384.944 963.149 384.954H963.051C961.131 384.96 959.23 385.435 957.46 386.349C955.69 387.264 954.086 388.601 952.739 390.282C946.533 397.995 943.004 408.361 942.892 419.203C942.781 430.044 946.096 440.517 952.142 448.419C952.434 448.808 952.739 449.182 953.044 449.556C954.732 451.617 956.595 453.449 958.602 455.02C964.089 459.373 970.487 461.677 977.02 461.651H977.227C981.711 461.632 986.147 460.522 990.279 458.384C994.411 456.247 998.157 453.124 1001.3 449.197C1004.02 445.804 1005.54 441.223 1005.52 436.458C1005.49 431.694 1003.93 427.135 1001.18 423.781ZM999.569 447.087C994.416 453.461 987.631 457.46 980.358 458.409C973.084 459.358 965.767 457.199 959.638 452.296C957.885 450.871 956.248 449.242 954.75 447.431C948.77 440.178 945.381 430.305 945.328 419.983C945.276 409.662 948.564 399.737 954.47 392.393C955.593 390.988 956.932 389.871 958.409 389.108C959.886 388.345 961.473 387.95 963.075 387.947H963.149C964.736 387.94 966.308 388.318 967.776 389.057C969.244 389.797 970.579 390.885 971.705 392.258L999.46 425.922C1001.76 428.712 1003.06 432.508 1003.08 436.476C1003.1 440.444 1001.84 444.261 999.569 447.087Z" fill="#3F3D56"/>
<path d="M910.114 313.345L882.359 279.682C879.627 276.353 875.932 274.491 872.084 274.503H871.999C870.076 274.512 868.173 274.989 866.401 275.906C864.629 276.824 863.023 278.163 861.674 279.846C856.544 286.245 853.218 294.493 852.182 303.382C851.147 312.271 852.457 321.334 855.921 329.242L855.933 329.256C857.363 332.491 859.138 335.476 861.211 338.133C861.443 338.462 861.711 338.791 861.979 339.121C868.353 346.89 876.975 351.239 885.955 351.215H886.175C890.659 351.192 895.095 350.078 899.227 347.938C903.359 345.798 907.105 342.674 910.248 338.746C911.597 337.068 912.664 335.079 913.388 332.894C914.112 330.709 914.478 328.37 914.465 326.012C914.453 323.653 914.062 321.32 913.316 319.147C912.569 316.974 911.481 315.002 910.114 313.345ZM908.505 336.651C905.587 340.296 902.111 343.195 898.276 345.18C894.441 347.166 890.324 348.2 886.162 348.221H885.955C879.705 348.218 873.595 345.946 868.394 341.69C863.193 337.434 859.132 331.385 856.723 324.302C854.315 317.22 853.665 309.421 854.856 301.886C856.047 294.352 859.026 287.418 863.418 281.957C865.69 279.136 868.781 277.537 872.013 277.512C875.244 277.486 878.351 279.037 880.653 281.822L908.407 315.471C910.703 318.266 912.003 322.066 912.021 326.036C912.04 330.007 910.775 333.824 908.505 336.651Z" fill="#3F3D56"/>
<path d="M1002.95 434.36L972.354 397.248C970.347 394.82 967.638 393.469 964.821 393.49C962.005 393.512 959.31 394.904 957.328 397.363C954.849 400.439 952.888 404.084 951.556 408.091C950.225 412.098 949.55 416.388 949.57 420.715C949.59 425.043 950.305 429.323 951.672 433.311C953.04 437.299 955.035 440.917 957.542 443.958C960.049 446.999 963.02 449.404 966.285 451.034C969.549 452.664 973.043 453.488 976.567 453.459C980.091 453.429 983.576 452.547 986.822 450.863C990.068 449.179 993.012 446.726 995.486 443.643L1002.95 434.36Z" fill="#FF9900"/>
<path d="M911.893 323.918L881.295 286.807C879.288 284.378 876.579 283.027 873.763 283.048C870.946 283.07 868.251 284.463 866.269 286.921C863.79 289.997 861.829 293.642 860.497 297.649C859.166 301.656 858.492 305.946 858.511 310.273C858.531 314.601 859.246 318.881 860.613 322.869C861.981 326.857 863.976 330.476 866.483 333.516C868.991 336.557 871.961 338.962 875.226 340.592C878.49 342.222 881.984 343.046 885.508 343.017C889.032 342.987 892.517 342.106 895.763 340.421C899.009 338.737 901.953 336.284 904.427 333.201L911.893 323.918Z" fill="#FF9900"/>
<path d="M969.328 457.475L968.597 459.839C965.16 458.238 961.828 456.631 958.602 455.02C901.46 426.385 874.181 392.872 855.934 329.256L855.921 329.242C855.056 326.248 854.215 323.184 853.398 320.051L855.324 319.288C855.968 322.301 856.91 325.207 858.128 327.939C859.127 331.427 860.155 334.825 861.212 338.133C878.362 391.824 903.654 422.509 952.142 448.419C954.58 449.721 957.078 451.013 959.638 452.296C962.61 454.674 965.886 456.424 969.328 457.475Z" fill="#3F3D56"/>
<path d="M881.851 348.49L880.137 350.621L943.445 427.405L945.158 425.274L881.851 348.49Z" fill="#3F3D56"/>
<path d="M345.877 284.868L345.91 235.678L322.363 238.262L330.673 269.286L300.509 325.438C298.623 325.958 296.9 327.14 295.552 328.841C294.203 330.542 293.287 332.688 292.915 335.018C292.542 337.347 292.73 339.759 293.455 341.96C294.18 344.161 295.41 346.055 296.996 347.412C298.583 348.769 300.456 349.53 302.389 349.602C304.321 349.674 306.228 349.053 307.879 347.817C309.529 346.581 310.851 344.781 311.682 342.638C312.514 340.495 312.821 338.102 312.564 335.749L345.877 284.868Z" fill="#FFB6B6"/>
</svg>
