<svg width="570" height="605" viewBox="0 0 570 605" fill="none" xmlns="http://www.w3.org/2000/svg">
<g clip-path="url(#clip0_156_164)">
<path d="M469.44 26.5677V74.9416H417.294V602.495H526.12V95.0224V74.9416V26.5677H469.44Z" fill="#5E93AD"/>
<path d="M182.261 351.496V268.439H115.756V351.496H90.8174V603.408H206.444V351.496H182.261Z" fill="#5E93AD"/>
<path d="M193.597 486.579H103.665V604.32H193.597V486.579Z" fill="#3F3D56"/>
<path opacity="0.1" d="M118.023 486.579H103.665V604.32H118.023V486.579Z" fill="black"/>
<path d="M378.752 0.0983887V28.3927H245.742V0.0983887H206.444V604.32H417.295V0.0983887H378.752Z" fill="#3F3D56"/>
<path opacity="0.1" d="M408.226 0.0987549H378.752V28.3931H408.226V0.0987549Z" fill="black"/>
<path opacity="0.1" d="M235.918 0.0987549H206.444V604.32H235.918V0.0987549Z" fill="black"/>
<path d="M56.0537 172.603V149.785H36.4047V172.603H0.884277V604.32H90.8175V172.603H56.0537Z" fill="#3F3D56"/>
<path opacity="0.1" d="M46.9846 149.785H36.4043V172.603H46.9846V149.785Z" fill="black"/>
<path opacity="0.1" d="M11.465 172.603H0.884766V604.32H11.465V172.603Z" fill="black"/>
<path opacity="0.1" d="M408.226 232.843H378.752V604.32H408.226V232.843Z" fill="black"/>
<path opacity="0.1" d="M90.8172 172.603H63.6108V252.01H90.8172V172.603Z" fill="black"/>
<path d="M281.262 76.7673H238.941V98.6726H281.262V76.7673Z" fill="#5E93AD"/>
<path d="M371.195 302.21H328.874V324.115H371.195V302.21Z" fill="#5E93AD"/>
<path d="M281.262 460.11H238.941V482.016H281.262V460.11Z" fill="#5E93AD"/>
<path d="M67.3894 271.177H25.0684V293.082H67.3894V271.177Z" fill="#5E93AD"/>
<path d="M170.169 499.357H127.848V521.263H170.169V499.357Z" fill="#5E93AD"/>
<path opacity="0.1" d="M185.284 370.664H112.733V407.173H185.284V370.664Z" fill="black"/>
<path opacity="0.1" d="M502.692 116.927H430.142V153.436H502.692V116.927Z" fill="black"/>
<path opacity="0.1" d="M502.692 194.508H430.142V231.017H502.692V194.508Z" fill="black"/>
<path opacity="0.1" d="M502.692 272.09H430.142V308.599H502.692V272.09Z" fill="black"/>
<path opacity="0.1" d="M502.692 349.671H430.142V386.18H502.692V349.671Z" fill="black"/>
<path opacity="0.1" d="M502.692 427.252H430.142V463.761H502.692V427.252Z" fill="black"/>
<path opacity="0.1" d="M502.692 504.834H430.142V541.343H502.692V504.834Z" fill="black"/>
<path d="M551.059 282.129V182.643H498.157V282.129H479.264V604.32H569.197V282.129H551.059Z" fill="#3F3D56"/>
<path opacity="0.1" d="M514.784 182.643H498.158V282.13H514.784V182.643Z" fill="black"/>
<path opacity="0.1" d="M495.89 282.13H479.264V604.32H495.89V282.13Z" fill="black"/>
<path opacity="0.1" d="M569.197 443.681H524.608V475.627H569.197V443.681Z" fill="black"/>
<path d="M568.441 396.22H526.12V418.125H568.441V396.22Z" fill="#5E93AD"/>
</g>
<defs>
<clipPath id="clip0_156_164">
<rect width="570" height="605" fill="white"/>
</clipPath>
</defs>
</svg>
