<svg width="967" height="626" viewBox="0 0 967 626" fill="none" xmlns="http://www.w3.org/2000/svg">
<g clip-path="url(#clip0_5_16)">
<path d="M157.094 291.501C171.249 291.501 182.725 280.03 182.725 265.879C182.725 251.729 171.249 240.258 157.094 240.258C142.938 240.258 131.462 251.729 131.462 265.879C131.462 280.03 142.938 291.501 157.094 291.501Z" fill="#FFB8B8"/>
<path d="M70.4863 572.914L76.9763 583.937L122.593 564.158L113.014 547.892L70.4863 572.914Z" fill="#FFB8B8"/>
<path d="M72.4309 567.986L85.2119 589.691C86.2815 591.507 86.9832 593.518 87.276 595.605C87.5687 597.693 87.4473 599.817 86.9187 601.858C86.39 603.898 85.4644 605.815 84.1948 607.498C82.9252 609.181 81.3364 610.597 79.5192 611.666L79.0695 611.931L58.1433 576.392L72.4309 567.986Z" fill="#2F2E41"/>
<path d="M145.683 612.621L158.477 612.62L164.564 563.29L145.681 563.291L145.683 612.621Z" fill="#FFB8B8"/>
<path d="M142.42 608.445L167.616 608.444C169.724 608.444 171.813 608.86 173.762 609.666C175.71 610.473 177.48 611.655 178.971 613.145C180.462 614.636 181.645 616.405 182.452 618.353C183.259 620.3 183.674 622.387 183.674 624.495V625.017L142.421 625.018L142.42 608.445Z" fill="#2F2E41"/>
<path d="M94.2469 582.734C93.5106 582.734 92.7845 582.561 92.1275 582.229C91.4704 581.897 90.9009 581.415 90.465 580.821L78.126 564.069C77.7496 563.558 77.4807 562.976 77.3357 562.359C77.1906 561.741 77.1724 561.1 77.2821 560.475C77.3917 559.85 77.6271 559.254 77.9738 558.722C78.3206 558.19 78.7716 557.735 79.2995 557.382L134.206 520.723L101.076 433.644L171.924 439.488L174.31 514.319C174.534 521.134 172.9 527.882 169.583 533.84C166.266 539.798 161.39 544.742 155.479 548.143L96.5931 582.103C95.8802 582.516 95.0709 582.733 94.2469 582.734Z" fill="#2F2E41"/>
<path d="M146.069 602.606C144.854 602.604 143.687 602.131 142.814 601.287C141.94 600.442 141.428 599.293 141.385 598.079L138.789 525.179L170.939 523.486L168.379 596.909C168.342 598.073 167.872 599.18 167.062 600.016C166.251 600.851 165.159 601.356 163.997 601.43L146.389 602.596C146.282 602.603 146.175 602.606 146.069 602.606Z" fill="#2F2E41"/>
<path d="M180.123 453.964C171.943 453.964 143.372 444.767 133.453 441.489C131.969 442.676 123.818 448.769 114.302 447.655C108.431 446.967 103.262 443.645 98.9398 437.781C89.3943 424.831 101.184 369.294 112.756 324.985C115.076 316.029 120.779 308.321 128.666 303.48C136.554 298.64 146.011 297.045 155.05 299.031C161.602 300.477 167.621 303.72 172.43 308.397C177.239 313.073 180.648 318.998 182.275 325.505C184.453 334.37 182.579 344.798 181.211 352.413C180.568 355.993 180.059 358.821 180.233 360.21C180.905 365.581 184.636 449.811 182.237 453.408C181.981 453.791 181.242 453.964 180.123 453.964Z" fill="#FF9900"/>
<path d="M150.199 454.114C151.513 453.135 152.597 451.881 153.374 450.438C154.152 448.996 154.603 447.401 154.697 445.765C154.79 444.129 154.524 442.493 153.917 440.971C153.309 439.45 152.375 438.08 151.181 436.958L151.688 334.889L127.639 338.892L134.703 437.963C132.95 440.094 132.041 442.793 132.146 445.55C132.251 448.306 133.365 450.928 135.275 452.919C137.185 454.909 139.759 456.13 142.509 456.351C145.26 456.571 147.996 455.775 150.199 454.114Z" fill="#FFB8B8"/>
<path d="M155.761 400.438H129.857C128.62 400.434 127.435 399.944 126.556 399.074C125.677 398.204 125.176 397.023 125.161 395.786L124.525 325.588C124.503 323.161 124.963 320.753 125.878 318.505C126.792 316.256 128.144 314.211 129.854 312.488C131.565 310.765 133.6 309.398 135.842 308.466C138.084 307.534 140.489 307.056 142.917 307.059C145.345 307.062 147.749 307.546 149.989 308.483C152.229 309.421 154.261 310.793 155.967 312.52C157.673 314.247 159.019 316.296 159.929 318.546C160.838 320.797 161.292 323.206 161.264 325.633L160.457 395.798C160.438 397.032 159.936 398.21 159.058 399.077C158.18 399.945 156.996 400.434 155.761 400.438Z" fill="#FF9900"/>
<path d="M150.567 291.394C138.832 291.416 127.761 282.143 125.727 270.59C124.999 266.051 125.327 261.405 126.686 257.014C128.162 252.015 130.693 247.39 134.108 243.451C137.523 239.513 141.743 236.352 146.484 234.181C151.225 232.011 156.376 230.882 161.59 230.87C166.804 230.859 171.96 231.964 176.71 234.113C179.85 235.533 182.942 237.573 184.38 240.703C185.817 243.834 184.917 248.21 181.773 249.618C179.718 250.539 177.139 250.087 175.316 251.408C172.697 253.306 173.372 257.345 174.541 260.36C175.71 263.374 177.033 267.022 175.073 269.594C173.246 271.991 169.595 271.917 166.719 271.014C163.844 270.112 161.005 268.602 158.007 268.909C153.634 269.357 150.491 273.705 149.91 278.061C149.328 282.417 150.697 286.771 152.049 290.952L150.567 291.394Z" fill="#2F2E41"/>
<path d="M270.286 626H1.04358C0.766802 626 0.501364 625.89 0.305656 625.694C0.109947 625.499 0 625.233 0 624.957C0 624.68 0.109947 624.415 0.305656 624.219C0.501364 624.024 0.766802 623.914 1.04358 623.914H270.286C270.563 623.914 270.828 624.024 271.024 624.219C271.22 624.415 271.33 624.68 271.33 624.957C271.33 625.233 271.22 625.499 271.024 625.694C270.828 625.89 270.563 626 270.286 626Z" fill="#CCCCCC"/>
<path d="M949.781 453.314H281.017C276.452 453.309 272.075 451.494 268.847 448.267C265.619 445.04 263.803 440.665 263.798 436.101V23.8827C263.802 20.5395 265.132 17.3342 267.497 14.9701C269.862 12.606 273.068 11.2762 276.413 11.2723H954.167C957.569 11.2762 960.831 12.629 963.237 15.034C965.643 17.4389 966.996 20.6996 967 24.1007V436.101C966.995 440.665 965.179 445.04 961.951 448.267C958.723 451.494 954.346 453.309 949.781 453.314Z" fill="#F2F2F2"/>
<path d="M928.158 431.582H304.888C295.752 431.582 288.319 424.624 288.319 416.072V57.1064C288.319 50.7638 293.827 45.6034 300.597 45.6034H932.246C939.129 45.6034 944.728 50.8489 944.728 57.2959V416.072C944.728 424.624 937.295 431.582 928.158 431.582Z" fill="white"/>
<path d="M966.76 26.0277H263.557V17.2645C263.563 12.6859 265.386 8.29681 268.626 5.06021C271.866 1.82362 276.258 0.00380417 280.838 7.62939e-06H949.478C954.059 0.00376556 958.451 1.82356 961.691 5.06016C964.93 8.29677 966.754 12.6858 966.76 17.2645V26.0277Z" fill="#3F3D56"/>
<path d="M294.963 17.5082C297.432 17.5082 299.434 15.5077 299.434 13.0398C299.434 10.572 297.432 8.57142 294.963 8.57142C292.495 8.57142 290.493 10.572 290.493 13.0398C290.493 15.5077 292.495 17.5082 294.963 17.5082Z" fill="white"/>
<path d="M311.931 17.5082C314.4 17.5082 316.401 15.5077 316.401 13.0398C316.401 10.572 314.4 8.57142 311.931 8.57142C309.462 8.57142 307.461 10.572 307.461 13.0398C307.461 15.5077 309.462 17.5082 311.931 17.5082Z" fill="white"/>
<path d="M328.898 17.5082C331.367 17.5082 333.368 15.5077 333.368 13.0398C333.368 10.572 331.367 8.57142 328.898 8.57142C326.429 8.57142 324.428 10.572 324.428 13.0398C324.428 15.5077 326.429 17.5082 328.898 17.5082Z" fill="white"/>
<path d="M601.737 124.092H479.839C478.021 124.092 476.278 123.37 474.993 122.085C473.708 120.801 472.986 119.059 472.986 117.242C472.986 115.425 473.708 113.683 474.993 112.398C476.278 111.114 478.021 110.392 479.839 110.392H601.737C603.554 110.392 605.297 111.114 606.582 112.398C607.867 113.683 608.589 115.425 608.589 117.242C608.589 119.059 607.867 120.801 606.582 122.085C605.297 123.37 603.554 124.092 601.737 124.092Z" fill="#CCCCCC"/>
<path d="M753.208 124.092H631.31C629.492 124.092 627.749 123.37 626.464 122.085C625.179 120.801 624.457 119.059 624.457 117.242C624.457 115.425 625.179 113.683 626.464 112.398C627.749 111.114 629.492 110.392 631.31 110.392H753.208C755.025 110.392 756.768 111.114 758.053 112.398C759.338 113.683 760.06 115.425 760.06 117.242C760.06 119.059 759.338 120.801 758.053 122.085C756.768 123.37 755.025 124.092 753.208 124.092Z" fill="#CCCCCC"/>
<path d="M753.208 150.048H541.148C539.331 150.048 537.588 149.327 536.303 148.042C535.018 146.758 534.296 145.015 534.296 143.199C534.296 141.382 535.018 139.64 536.303 138.355C537.588 137.071 539.331 136.349 541.148 136.349H753.208C755.025 136.349 756.768 137.071 758.053 138.355C759.338 139.64 760.06 141.382 760.06 143.199C760.06 145.015 759.338 146.758 758.053 148.042C756.768 149.327 755.025 150.048 753.208 150.048Z" fill="#CCCCCC"/>
<path d="M601.737 97.7743H479.839C478.023 97.7721 476.282 97.0494 474.999 95.7651C473.716 94.4808 472.995 92.7398 472.995 90.9246C472.995 89.1094 473.716 87.3685 474.999 86.0841C476.282 84.7998 478.023 84.0772 479.839 84.0749H601.737C602.637 84.0738 603.529 84.2502 604.362 84.5939C605.194 84.9376 605.95 85.442 606.588 86.0782C607.225 86.7143 607.73 87.4698 608.075 88.3014C608.42 89.133 608.598 90.0244 608.598 90.9246C608.598 91.8248 608.42 92.7162 608.075 93.5478C607.73 94.3794 607.225 95.1349 606.588 95.7711C605.95 96.4072 605.194 96.9116 604.362 97.2553C603.529 97.5991 602.637 97.7754 601.737 97.7743Z" fill="#CCCCCC"/>
<path d="M668.817 98.1348H634.195C632.377 98.1348 630.635 97.4132 629.349 96.1286C628.064 94.844 627.343 93.1018 627.343 91.2851C627.343 89.4685 628.064 87.7262 629.349 86.4417C630.635 85.1571 632.377 84.4354 634.195 84.4354H668.817C670.634 84.4354 672.377 85.1571 673.662 86.4417C674.947 87.7262 675.669 89.4685 675.669 91.2851C675.669 93.1018 674.947 94.844 673.662 96.1286C672.377 97.4132 670.634 98.1348 668.817 98.1348Z" fill="#CCCCCC"/>
<path d="M514.461 150.048H479.839C478.023 150.046 476.282 149.323 474.999 148.039C473.716 146.755 472.995 145.014 472.995 143.199C472.995 141.383 473.716 139.642 474.999 138.358C476.282 137.074 478.023 136.351 479.839 136.349H514.461C515.361 136.348 516.253 136.524 517.086 136.868C517.918 137.212 518.674 137.716 519.311 138.352C519.949 138.988 520.454 139.744 520.799 140.575C521.144 141.407 521.321 142.298 521.321 143.199C521.321 144.099 521.144 144.99 520.799 145.822C520.454 146.653 519.949 147.409 519.311 148.045C518.674 148.681 517.918 149.186 517.086 149.529C516.253 149.873 515.361 150.049 514.461 150.048Z" fill="#CCCCCC"/>
<path d="M601.737 367.154H479.839C478.021 367.154 476.278 366.432 474.993 365.148C473.708 363.863 472.986 362.121 472.986 360.304C472.986 358.487 473.708 356.745 474.993 355.461C476.278 354.176 478.021 353.454 479.839 353.454H601.737C602.637 353.454 603.528 353.632 604.359 353.976C605.19 354.32 605.946 354.825 606.582 355.461C607.218 356.097 607.723 356.852 608.067 357.683C608.412 358.514 608.589 359.405 608.589 360.304C608.589 361.204 608.412 362.094 608.067 362.925C607.723 363.756 607.218 364.512 606.582 365.148C605.946 365.784 605.19 366.288 604.359 366.632C603.528 366.977 602.637 367.154 601.737 367.154Z" fill="#CCCCCC"/>
<path d="M753.208 367.154H631.31C629.492 367.154 627.749 366.432 626.464 365.148C625.179 363.863 624.457 362.121 624.457 360.304C624.457 358.487 625.179 356.745 626.464 355.461C627.749 354.176 629.492 353.454 631.31 353.454H753.208C754.108 353.454 754.999 353.632 755.83 353.976C756.661 354.32 757.417 354.825 758.053 355.461C758.689 356.097 759.194 356.852 759.538 357.683C759.883 358.514 760.06 359.405 760.06 360.304C760.06 361.204 759.883 362.094 759.538 362.925C759.194 363.756 758.689 364.512 758.053 365.148C757.417 365.784 756.661 366.288 755.83 366.632C754.999 366.977 754.108 367.154 753.208 367.154Z" fill="#CCCCCC"/>
<path d="M753.208 393.111H541.148C539.331 393.111 537.588 392.389 536.303 391.104C535.018 389.82 534.296 388.078 534.296 386.261C534.296 384.444 535.018 382.702 536.303 381.417C537.588 380.133 539.331 379.411 541.148 379.411H753.208C754.108 379.41 755 379.586 755.833 379.93C756.665 380.274 757.421 380.778 758.059 381.414C758.696 382.051 759.201 382.806 759.546 383.638C759.891 384.469 760.069 385.361 760.069 386.261C760.069 387.161 759.891 388.053 759.546 388.884C759.201 389.716 758.696 390.471 758.059 391.107C757.421 391.744 756.665 392.248 755.833 392.592C755 392.935 754.108 393.112 753.208 393.111Z" fill="#CCCCCC"/>
<path d="M601.737 340.837H479.839C478.021 340.837 476.278 340.115 474.993 338.83C473.708 337.546 472.986 335.803 472.986 333.987C472.986 332.17 473.708 330.428 474.993 329.143C476.278 327.859 478.021 327.137 479.839 327.137H601.737C603.554 327.137 605.297 327.859 606.582 329.143C607.867 330.428 608.589 332.17 608.589 333.987C608.589 335.803 607.867 337.546 606.582 338.83C605.297 340.115 603.554 340.837 601.737 340.837Z" fill="#CCCCCC"/>
<path d="M668.817 341.197H634.195C632.377 341.197 630.635 340.475 629.349 339.191C628.064 337.906 627.343 336.164 627.343 334.347C627.343 332.531 628.064 330.788 629.349 329.504C630.635 328.219 632.377 327.498 634.195 327.498H668.817C670.634 327.498 672.377 328.219 673.662 329.504C674.947 330.788 675.669 332.531 675.669 334.347C675.669 336.164 674.947 337.906 673.662 339.191C672.377 340.475 670.634 341.197 668.817 341.197Z" fill="#CCCCCC"/>
<path d="M514.461 393.111H479.839C478.021 393.111 476.278 392.389 474.993 391.104C473.708 389.82 472.986 388.078 472.986 386.261C472.986 384.444 473.708 382.702 474.993 381.417C476.278 380.133 478.021 379.411 479.839 379.411H514.461C515.361 379.41 516.253 379.586 517.085 379.93C517.918 380.274 518.674 380.778 519.311 381.414C519.948 382.051 520.454 382.806 520.799 383.638C521.144 384.469 521.321 385.361 521.321 386.261C521.321 387.161 521.144 388.053 520.799 388.884C520.454 389.716 519.948 390.471 519.311 391.107C518.674 391.744 517.918 392.248 517.085 392.592C516.253 392.935 515.361 393.112 514.461 393.111Z" fill="#CCCCCC"/>
<path d="M569.901 293.617C567.314 293.623 564.83 292.606 562.989 290.79L517.167 245.558C516.267 244.67 515.553 243.612 515.065 242.446C514.578 241.28 514.327 240.029 514.327 238.765C514.327 237.501 514.578 236.25 515.065 235.084C515.553 233.918 516.267 232.86 517.167 231.972L562.804 186.923C564.705 185.055 567.266 184.012 569.932 184.021C572.597 184.029 575.152 185.088 577.042 186.968C578.933 188.862 579.995 191.43 579.995 194.106C579.995 196.783 578.933 199.351 577.042 201.245L543.13 235.145C542.073 236.204 541.48 237.638 541.48 239.134C541.48 240.629 542.073 242.064 543.13 243.122L576.858 276.838C578.235 278.212 579.173 279.964 579.554 281.872C579.934 283.779 579.739 285.757 578.994 287.554C578.249 289.351 576.987 290.886 575.369 291.966C573.75 293.045 571.847 293.62 569.901 293.617Z" fill="#FF9900"/>
<path d="M642.915 293.617C640.969 293.62 639.066 293.045 637.447 291.966C635.829 290.886 634.567 289.351 633.822 287.554C633.077 285.757 632.882 283.779 633.262 281.872C633.643 279.964 634.581 278.212 635.958 276.838L669.686 243.122C670.743 242.064 671.336 240.629 671.336 239.134C671.336 237.638 670.743 236.204 669.686 235.145L635.774 201.245C634.836 200.308 634.092 199.195 633.585 197.97C633.077 196.745 632.816 195.432 632.816 194.106C632.816 192.781 633.077 191.468 633.585 190.243C634.093 189.018 634.837 187.905 635.774 186.968C637.664 185.088 640.219 184.029 642.884 184.021C645.55 184.012 648.111 185.055 650.013 186.923L695.649 231.972C696.549 232.86 697.263 233.918 697.751 235.084C698.238 236.25 698.489 237.501 698.489 238.765C698.489 240.029 698.238 241.28 697.751 242.446C697.263 243.612 696.549 244.67 695.649 245.558L649.827 290.79C647.986 292.606 645.502 293.622 642.915 293.617Z" fill="#FF9900"/>
</g>
<defs>
<clipPath id="clip0_5_16">
<rect width="967" height="626" fill="white"/>
</clipPath>
</defs>
</svg>
