<svg width="1080" height="757" viewBox="0 0 1080 757" fill="none" xmlns="http://www.w3.org/2000/svg">
<g clip-path="url(#clip0_48_2205)">
<path d="M245.301 19.6718C250.583 19.6718 254.865 15.2681 254.865 9.83592C254.865 4.40369 250.583 0 245.301 0C240.019 0 235.738 4.40369 235.738 9.83592C235.738 15.2681 240.019 19.6718 245.301 19.6718Z" fill="#E6E6E6"/>
<path d="M293.713 19.6718C298.994 19.6718 303.276 15.2681 303.276 9.83592C303.276 4.40369 298.994 0 293.713 0C288.431 0 284.149 4.40369 284.149 9.83592C284.149 15.2681 288.431 19.6718 293.713 19.6718Z" fill="#E6E6E6"/>
<path d="M342.124 19.6718C347.406 19.6718 351.687 15.2681 351.687 9.83592C351.687 4.40369 347.406 0 342.124 0C336.842 0 332.56 4.40369 332.56 9.83592C332.56 15.2681 336.842 19.6718 342.124 19.6718Z" fill="#E6E6E6"/>
<path d="M390.535 19.6718C395.817 19.6718 400.099 15.2681 400.099 9.83592C400.099 4.40369 395.817 0 390.535 0C385.253 0 380.971 4.40369 380.971 9.83592C380.971 15.2681 385.253 19.6718 390.535 19.6718Z" fill="#E6E6E6"/>
<path d="M438.946 19.6718C444.228 19.6718 448.51 15.2681 448.51 9.83592C448.51 4.40369 444.228 0 438.946 0C433.664 0 429.383 4.40369 429.383 9.83592C429.383 15.2681 433.664 19.6718 438.946 19.6718Z" fill="#E6E6E6"/>
<path d="M245.301 70.0859C250.583 70.0859 254.865 65.6822 254.865 60.25C254.865 54.8178 250.583 50.4141 245.301 50.4141C240.019 50.4141 235.738 54.8178 235.738 60.25C235.738 65.6822 240.019 70.0859 245.301 70.0859Z" fill="#E6E6E6"/>
<path d="M293.713 70.0859C298.994 70.0859 303.276 65.6822 303.276 60.25C303.276 54.8178 298.994 50.4141 293.713 50.4141C288.431 50.4141 284.149 54.8178 284.149 60.25C284.149 65.6822 288.431 70.0859 293.713 70.0859Z" fill="#E6E6E6"/>
<path d="M342.124 70.0859C347.406 70.0859 351.687 65.6822 351.687 60.25C351.687 54.8178 347.406 50.4141 342.124 50.4141C336.842 50.4141 332.56 54.8178 332.56 60.25C332.56 65.6822 336.842 70.0859 342.124 70.0859Z" fill="#E6E6E6"/>
<path d="M390.535 70.0859C395.817 70.0859 400.099 65.6822 400.099 60.25C400.099 54.8178 395.817 50.4141 390.535 50.4141C385.253 50.4141 380.971 54.8178 380.971 60.25C380.971 65.6822 385.253 70.0859 390.535 70.0859Z" fill="#F9A826"/>
<path d="M438.946 70.0859C444.228 70.0859 448.51 65.6822 448.51 60.25C448.51 54.8178 444.228 50.4141 438.946 50.4141C433.664 50.4141 429.383 54.8178 429.383 60.25C429.383 65.6822 433.664 70.0859 438.946 70.0859Z" fill="#E6E6E6"/>
<path d="M535.769 70.0859C541.051 70.0859 545.332 65.6822 545.332 60.25C545.332 54.8178 541.051 50.4141 535.769 50.4141C530.487 50.4141 526.205 54.8178 526.205 60.25C526.205 65.6822 530.487 70.0859 535.769 70.0859Z" fill="#E6E6E6"/>
<path d="M245.301 120.5C250.583 120.5 254.865 116.097 254.865 110.664C254.865 105.232 250.583 100.828 245.301 100.828C240.019 100.828 235.738 105.232 235.738 110.664C235.738 116.097 240.019 120.5 245.301 120.5Z" fill="#E6E6E6"/>
<path d="M293.713 120.5C298.994 120.5 303.276 116.097 303.276 110.664C303.276 105.232 298.994 100.828 293.713 100.828C288.431 100.828 284.149 105.232 284.149 110.664C284.149 116.097 288.431 120.5 293.713 120.5Z" fill="#E6E6E6"/>
<path d="M342.124 120.5C347.406 120.5 351.687 116.097 351.687 110.664C351.687 105.232 347.406 100.828 342.124 100.828C336.842 100.828 332.56 105.232 332.56 110.664C332.56 116.097 336.842 120.5 342.124 120.5Z" fill="#E6E6E6"/>
<path d="M390.535 120.5C395.817 120.5 400.099 116.097 400.099 110.664C400.099 105.232 395.817 100.828 390.535 100.828C385.253 100.828 380.971 105.232 380.971 110.664C380.971 116.097 385.253 120.5 390.535 120.5Z" fill="#E6E6E6"/>
<path d="M438.946 120.5C444.228 120.5 448.51 116.097 448.51 110.664C448.51 105.232 444.228 100.828 438.946 100.828C433.664 100.828 429.383 105.232 429.383 110.664C429.383 116.097 433.664 120.5 438.946 120.5Z" fill="#E6E6E6"/>
<path d="M245.301 170.914C250.583 170.914 254.865 166.511 254.865 161.078C254.865 155.646 250.583 151.242 245.301 151.242C240.019 151.242 235.738 155.646 235.738 161.078C235.738 166.511 240.019 170.914 245.301 170.914Z" fill="#E6E6E6"/>
<path d="M293.713 170.914C298.994 170.914 303.276 166.511 303.276 161.078C303.276 155.646 298.994 151.242 293.713 151.242C288.431 151.242 284.149 155.646 284.149 161.078C284.149 166.511 288.431 170.914 293.713 170.914Z" fill="#E6E6E6"/>
<path d="M342.124 170.914C347.406 170.914 351.687 166.511 351.687 161.078C351.687 155.646 347.406 151.242 342.124 151.242C336.842 151.242 332.56 155.646 332.56 161.078C332.56 166.511 336.842 170.914 342.124 170.914Z" fill="#E6E6E6"/>
<path d="M390.535 170.914C395.817 170.914 400.099 166.511 400.099 161.078C400.099 155.646 395.817 151.242 390.535 151.242C385.253 151.242 380.971 155.646 380.971 161.078C380.971 166.511 385.253 170.914 390.535 170.914Z" fill="#E6E6E6"/>
<path d="M438.946 170.914C444.228 170.914 448.51 166.511 448.51 161.078C448.51 155.646 444.228 151.242 438.946 151.242C433.664 151.242 429.383 155.646 429.383 161.078C429.383 166.511 433.664 170.914 438.946 170.914Z" fill="#E6E6E6"/>
<path d="M487.358 170.914C492.639 170.914 496.921 166.511 496.921 161.078C496.921 155.646 492.639 151.242 487.358 151.242C482.076 151.242 477.794 155.646 477.794 161.078C477.794 166.511 482.076 170.914 487.358 170.914Z" fill="#E6E6E6"/>
<path d="M535.769 170.914C541.051 170.914 545.332 166.511 545.332 161.078C545.332 155.646 541.051 151.242 535.769 151.242C530.487 151.242 526.205 155.646 526.205 161.078C526.205 166.511 530.487 170.914 535.769 170.914Z" fill="#E6E6E6"/>
<path d="M584.18 170.914C589.462 170.914 593.744 166.511 593.744 161.078C593.744 155.646 589.462 151.242 584.18 151.242C578.898 151.242 574.616 155.646 574.616 161.078C574.616 166.511 578.898 170.914 584.18 170.914Z" fill="#E6E6E6"/>
<path d="M632.591 170.914C637.873 170.914 642.155 166.511 642.155 161.078C642.155 155.646 637.873 151.242 632.591 151.242C627.309 151.242 623.028 155.646 623.028 161.078C623.028 166.511 627.309 170.914 632.591 170.914Z" fill="#E6E6E6"/>
<path d="M681.002 170.914C686.284 170.914 690.566 166.511 690.566 161.078C690.566 155.646 686.284 151.242 681.002 151.242C675.721 151.242 671.439 155.646 671.439 161.078C671.439 166.511 675.721 170.914 681.002 170.914Z" fill="#E6E6E6"/>
<path d="M438.946 221.329C444.228 221.329 448.51 216.925 448.51 211.493C448.51 206.06 444.228 201.657 438.946 201.657C433.664 201.657 429.383 206.06 429.383 211.493C429.383 216.925 433.664 221.329 438.946 221.329Z" fill="#E6E6E6"/>
<path d="M487.358 221.329C492.639 221.329 496.921 216.925 496.921 211.493C496.921 206.06 492.639 201.657 487.358 201.657C482.076 201.657 477.794 206.06 477.794 211.493C477.794 216.925 482.076 221.329 487.358 221.329Z" fill="#F9A826"/>
<path d="M535.769 221.329C541.051 221.329 545.332 216.925 545.332 211.493C545.332 206.06 541.051 201.657 535.769 201.657C530.487 201.657 526.205 206.06 526.205 211.493C526.205 216.925 530.487 221.329 535.769 221.329Z" fill="#E6E6E6"/>
<path d="M584.18 221.329C589.462 221.329 593.744 216.925 593.744 211.493C593.744 206.06 589.462 201.657 584.18 201.657C578.898 201.657 574.616 206.06 574.616 211.493C574.616 216.925 578.898 221.329 584.18 221.329Z" fill="#E6E6E6"/>
<path d="M632.591 221.329C637.873 221.329 642.155 216.925 642.155 211.493C642.155 206.06 637.873 201.657 632.591 201.657C627.309 201.657 623.028 206.06 623.028 211.493C623.028 216.925 627.309 221.329 632.591 221.329Z" fill="#E6E6E6"/>
<path d="M681.002 221.329C686.284 221.329 690.566 216.925 690.566 211.493C690.566 206.06 686.284 201.657 681.002 201.657C675.721 201.657 671.439 206.06 671.439 211.493C671.439 216.925 675.721 221.329 681.002 221.329Z" fill="#E6E6E6"/>
<path d="M438.946 271.743C444.228 271.743 448.51 267.339 448.51 261.907C448.51 256.474 444.228 252.071 438.946 252.071C433.664 252.071 429.383 256.474 429.383 261.907C429.383 267.339 433.664 271.743 438.946 271.743Z" fill="#E6E6E6"/>
<path d="M487.358 271.743C492.639 271.743 496.921 267.339 496.921 261.907C496.921 256.474 492.639 252.071 487.358 252.071C482.076 252.071 477.794 256.474 477.794 261.907C477.794 267.339 482.076 271.743 487.358 271.743Z" fill="#E6E6E6"/>
<path d="M535.769 271.743C541.051 271.743 545.332 267.339 545.332 261.907C545.332 256.474 541.051 252.071 535.769 252.071C530.487 252.071 526.205 256.474 526.205 261.907C526.205 267.339 530.487 271.743 535.769 271.743Z" fill="#E6E6E6"/>
<path d="M584.18 271.743C589.462 271.743 593.744 267.339 593.744 261.907C593.744 256.474 589.462 252.071 584.18 252.071C578.898 252.071 574.616 256.474 574.616 261.907C574.616 267.339 578.898 271.743 584.18 271.743Z" fill="#E6E6E6"/>
<path d="M632.591 271.743C637.873 271.743 642.155 267.339 642.155 261.907C642.155 256.474 637.873 252.071 632.591 252.071C627.309 252.071 623.028 256.474 623.028 261.907C623.028 267.339 627.309 271.743 632.591 271.743Z" fill="#F9A826"/>
<path d="M681.002 271.743C686.284 271.743 690.566 267.339 690.566 261.907C690.566 256.474 686.284 252.071 681.002 252.071C675.721 252.071 671.439 256.474 671.439 261.907C671.439 267.339 675.721 271.743 681.002 271.743Z" fill="#E6E6E6"/>
<path d="M438.946 322.157C444.228 322.157 448.51 317.753 448.51 312.321C448.51 306.889 444.228 302.485 438.946 302.485C433.664 302.485 429.383 306.889 429.383 312.321C429.383 317.753 433.664 322.157 438.946 322.157Z" fill="#E6E6E6"/>
<path d="M487.358 322.157C492.639 322.157 496.921 317.753 496.921 312.321C496.921 306.889 492.639 302.485 487.358 302.485C482.076 302.485 477.794 306.889 477.794 312.321C477.794 317.753 482.076 322.157 487.358 322.157Z" fill="#E6E6E6"/>
<path d="M535.769 322.157C541.051 322.157 545.332 317.753 545.332 312.321C545.332 306.889 541.051 302.485 535.769 302.485C530.487 302.485 526.205 306.889 526.205 312.321C526.205 317.753 530.487 322.157 535.769 322.157Z" fill="#E6E6E6"/>
<path d="M584.18 322.157C589.462 322.157 593.744 317.753 593.744 312.321C593.744 306.889 589.462 302.485 584.18 302.485C578.898 302.485 574.616 306.889 574.616 312.321C574.616 317.753 578.898 322.157 584.18 322.157Z" fill="#E6E6E6"/>
<path d="M632.591 322.157C637.873 322.157 642.155 317.753 642.155 312.321C642.155 306.889 637.873 302.485 632.591 302.485C627.309 302.485 623.028 306.889 623.028 312.321C623.028 317.753 627.309 322.157 632.591 322.157Z" fill="#E6E6E6"/>
<path d="M681.002 322.157C686.284 322.157 690.566 317.753 690.566 312.321C690.566 306.889 686.284 302.485 681.002 302.485C675.721 302.485 671.439 306.889 671.439 312.321C671.439 317.753 675.721 322.157 681.002 322.157Z" fill="#E6E6E6"/>
<path d="M245.301 372.571C250.583 372.571 254.865 368.167 254.865 362.735C254.865 357.303 250.583 352.899 245.301 352.899C240.019 352.899 235.738 357.303 235.738 362.735C235.738 368.167 240.019 372.571 245.301 372.571Z" fill="#E6E6E6"/>
<path d="M293.713 372.571C298.994 372.571 303.276 368.167 303.276 362.735C303.276 357.303 298.994 352.899 293.713 352.899C288.431 352.899 284.149 357.303 284.149 362.735C284.149 368.167 288.431 372.571 293.713 372.571Z" fill="#E6E6E6"/>
<path d="M342.124 372.571C347.406 372.571 351.687 368.167 351.687 362.735C351.687 357.303 347.406 352.899 342.124 352.899C336.842 352.899 332.56 357.303 332.56 362.735C332.56 368.167 336.842 372.571 342.124 372.571Z" fill="#E6E6E6"/>
<path d="M390.535 372.571C395.817 372.571 400.099 368.167 400.099 362.735C400.099 357.303 395.817 352.899 390.535 352.899C385.253 352.899 380.971 357.303 380.971 362.735C380.971 368.167 385.253 372.571 390.535 372.571Z" fill="#E6E6E6"/>
<path d="M438.946 372.571C444.228 372.571 448.51 368.167 448.51 362.735C448.51 357.303 444.228 352.899 438.946 352.899C433.664 352.899 429.383 357.303 429.383 362.735C429.383 368.167 433.664 372.571 438.946 372.571Z" fill="#E6E6E6"/>
<path d="M487.358 372.571C492.639 372.571 496.921 368.167 496.921 362.735C496.921 357.303 492.639 352.899 487.358 352.899C482.076 352.899 477.794 357.303 477.794 362.735C477.794 368.167 482.076 372.571 487.358 372.571Z" fill="#E6E6E6"/>
<path d="M535.769 372.571C541.051 372.571 545.332 368.167 545.332 362.735C545.332 357.303 541.051 352.899 535.769 352.899C530.487 352.899 526.205 357.303 526.205 362.735C526.205 368.167 530.487 372.571 535.769 372.571Z" fill="#E6E6E6"/>
<path d="M584.18 372.571C589.462 372.571 593.744 368.167 593.744 362.735C593.744 357.303 589.462 352.899 584.18 352.899C578.898 352.899 574.616 357.303 574.616 362.735C574.616 368.167 578.898 372.571 584.18 372.571Z" fill="#E6E6E6"/>
<path d="M632.591 372.571C637.873 372.571 642.155 368.167 642.155 362.735C642.155 357.303 637.873 352.899 632.591 352.899C627.309 352.899 623.028 357.303 623.028 362.735C623.028 368.167 627.309 372.571 632.591 372.571Z" fill="#E6E6E6"/>
<path d="M681.002 372.571C686.284 372.571 690.566 368.167 690.566 362.735C690.566 357.303 686.284 352.899 681.002 352.899C675.721 352.899 671.439 357.303 671.439 362.735C671.439 368.167 675.721 372.571 681.002 372.571Z" fill="#E6E6E6"/>
<path d="M245.296 422.984C250.578 422.984 254.86 418.58 254.86 413.148C254.86 407.715 250.578 403.312 245.296 403.312C240.014 403.312 235.732 407.715 235.732 413.148C235.732 418.58 240.014 422.984 245.296 422.984Z" fill="#E6E6E6"/>
<path d="M293.713 422.985C298.994 422.985 303.276 418.581 303.276 413.149C303.276 407.717 298.994 403.313 293.713 403.313C288.431 403.313 284.149 407.717 284.149 413.149C284.149 418.581 288.431 422.985 293.713 422.985Z" fill="#E6E6E6"/>
<path d="M245.296 473.397C250.578 473.397 254.859 468.994 254.859 463.561C254.859 458.129 250.578 453.726 245.296 453.726C240.014 453.726 235.732 458.129 235.732 463.561C235.732 468.994 240.014 473.397 245.296 473.397Z" fill="#E6E6E6"/>
<path d="M293.713 473.399C298.994 473.399 303.276 468.996 303.276 463.563C303.276 458.131 298.994 453.728 293.713 453.728C288.431 453.728 284.149 458.131 284.149 463.563C284.149 468.996 288.431 473.399 293.713 473.399Z" fill="#E6E6E6"/>
<path d="M390.535 473.399C395.817 473.399 400.099 468.996 400.099 463.563C400.099 458.131 395.817 453.728 390.535 453.728C385.253 453.728 380.971 458.131 380.971 463.563C380.971 468.996 385.253 473.399 390.535 473.399Z" fill="#E6E6E6"/>
<path d="M873.084 116.044H494.092C492.231 116.042 490.447 115.281 489.132 113.928C487.816 112.574 487.076 110.74 487.073 108.826V12.1385C487.076 10.2249 487.816 8.39021 489.132 7.03703C490.447 5.68386 492.231 4.92265 494.092 4.92041H873.084C874.944 4.92265 876.728 5.68386 878.044 7.03703C879.36 8.39021 880.1 10.2249 880.102 12.1385V108.826C880.1 110.74 879.36 112.574 878.044 113.928C876.728 115.281 874.944 116.042 873.084 116.044ZM494.092 7.80766C492.975 7.80891 491.905 8.2656 491.116 9.07753C490.326 9.88945 489.882 10.9903 489.881 12.1385V108.826C489.882 109.974 490.326 111.075 491.116 111.887C491.905 112.699 492.975 113.156 494.092 113.157H873.084C874.2 113.156 875.27 112.699 876.06 111.887C876.849 111.075 877.293 109.974 877.295 108.826V12.1385C877.293 10.9903 876.849 9.88945 876.06 9.07753C875.27 8.2656 874.2 7.80891 873.084 7.80766H494.092Z" fill="#E6E6E6"/>
<path d="M543.22 90.798C559.5 90.798 572.698 77.225 572.698 60.4819C572.698 43.7388 559.5 30.1658 543.22 30.1658C526.941 30.1658 513.743 43.7388 513.743 60.4819C513.743 77.225 526.941 90.798 543.22 90.798Z" fill="#F9A826"/>
<path d="M611.298 40.2712C609.995 40.2712 608.746 40.8036 607.824 41.7511C606.903 42.6987 606.385 43.9839 606.385 45.3239C606.385 46.664 606.903 47.9491 607.824 48.8967C608.746 49.8443 609.995 50.3766 611.298 50.3766H741.84C743.143 50.3766 744.392 49.8443 745.314 48.8967C746.235 47.9491 746.753 46.664 746.753 45.3239C746.753 43.9839 746.235 42.6987 745.314 41.7511C744.392 40.8036 743.143 40.2712 741.84 40.2712H611.298Z" fill="#E6E6E6"/>
<path d="M611.298 70.5872C609.995 70.5872 608.746 71.1195 607.824 72.067C606.903 73.0146 606.385 74.2998 606.385 75.6398C606.385 76.9799 606.903 78.2651 607.824 79.2126C608.746 80.1602 609.995 80.6925 611.298 80.6925H842.904C844.207 80.6925 845.457 80.1602 846.378 79.2126C847.299 78.2651 847.817 76.9799 847.817 75.6398C847.817 74.2998 847.299 73.0146 846.378 72.067C845.457 71.1195 844.207 70.5872 842.904 70.5872H611.298Z" fill="#E6E6E6"/>
<path d="M386.01 312.377H7.01835C5.15764 312.375 3.37377 311.613 2.05804 310.26C0.742319 308.907 0.00218064 307.072 0 305.159V208.471C0.00218064 206.558 0.742319 204.723 2.05804 203.37C3.37377 202.017 5.15764 201.255 7.01835 201.253H386.01C387.871 201.255 389.655 202.017 390.97 203.37C392.286 204.723 393.026 206.558 393.028 208.471V305.159C393.026 307.073 392.286 308.907 390.97 310.26C389.655 311.613 387.871 312.375 386.01 312.377ZM7.01835 204.14C5.9019 204.142 4.83152 204.598 4.04206 205.41C3.25261 206.222 2.80856 207.323 2.80734 208.471V305.159C2.80856 306.307 3.25261 307.408 4.04206 308.22C4.83152 309.032 5.9019 309.488 7.01835 309.49H386.01C387.126 309.488 388.197 309.032 388.986 308.22C389.776 307.408 390.22 306.307 390.221 305.159V208.471C390.22 207.323 389.776 206.222 388.986 205.41C388.197 204.598 387.126 204.142 386.01 204.14H7.01835Z" fill="#E6E6E6"/>
<path d="M56.1468 287.131C72.4265 287.131 85.6238 273.558 85.6238 256.815C85.6238 240.072 72.4265 226.499 56.1468 226.499C39.867 226.499 26.6697 240.072 26.6697 256.815C26.6697 273.558 39.867 287.131 56.1468 287.131Z" fill="#F9A826"/>
<path d="M124.225 236.604C122.922 236.604 121.672 237.136 120.751 238.084C119.83 239.031 119.312 240.317 119.312 241.657C119.312 242.997 119.83 244.282 120.751 245.229C121.672 246.177 122.922 246.709 124.225 246.709H260.381C261.684 246.709 262.933 246.177 263.855 245.229C264.776 244.282 265.294 242.997 265.294 241.657C265.294 240.317 264.776 239.031 263.855 238.084C262.933 237.136 261.684 236.604 260.381 236.604H124.225Z" fill="#E6E6E6"/>
<path d="M124.225 266.92C122.922 266.92 121.672 267.453 120.751 268.4C119.83 269.348 119.312 270.633 119.312 271.973C119.312 273.313 119.83 274.598 120.751 275.546C121.672 276.493 122.922 277.026 124.225 277.026H355.83C357.133 277.026 358.383 276.493 359.304 275.546C360.226 274.598 360.743 273.313 360.743 271.973C360.743 270.633 360.226 269.348 359.304 268.4C358.383 267.453 357.133 266.92 355.83 266.92H124.225Z" fill="#E6E6E6"/>
<path d="M728.506 524.59H349.514C347.653 524.588 345.869 523.826 344.554 522.473C343.238 521.12 342.498 519.285 342.496 517.372V420.684C342.498 418.771 343.238 416.936 344.554 415.583C345.869 414.23 347.653 413.468 349.514 413.466H728.506C730.366 413.468 732.15 414.23 733.466 415.583C734.782 416.936 735.522 418.771 735.524 420.684V517.372C735.522 519.285 734.782 521.12 733.466 522.473C732.15 523.826 730.366 524.588 728.506 524.59ZM349.514 416.353C348.398 416.355 347.327 416.811 346.538 417.623C345.748 418.435 345.304 419.536 345.303 420.684V517.372C345.304 518.52 345.748 519.621 346.538 520.433C347.327 521.245 348.398 521.701 349.514 521.703H728.506C729.622 521.701 730.692 521.245 731.482 520.433C732.271 519.621 732.715 518.52 732.717 517.372V420.684C732.715 419.536 732.271 418.435 731.482 417.623C730.692 416.811 729.622 416.355 728.506 416.353H349.514Z" fill="#3F3D56"/>
<path d="M398.642 499.344C414.922 499.344 428.119 485.771 428.119 469.028C428.119 452.284 414.922 438.711 398.642 438.711C382.363 438.711 369.165 452.284 369.165 469.028C369.165 485.771 382.363 499.344 398.642 499.344Z" fill="#F9A826"/>
<path d="M466.72 448.817C465.417 448.817 464.168 449.349 463.246 450.297C462.325 451.244 461.807 452.529 461.807 453.869C461.807 455.209 462.325 456.495 463.246 457.442C464.168 458.39 465.417 458.922 466.72 458.922H591.647C592.95 458.922 594.2 458.39 595.121 457.442C596.042 456.495 596.56 455.209 596.56 453.869C596.56 452.529 596.042 451.244 595.121 450.297C594.2 449.349 592.95 448.817 591.647 448.817H466.72Z" fill="#E6E6E6"/>
<path d="M466.72 479.133C465.417 479.133 464.168 479.665 463.246 480.613C462.325 481.56 461.807 482.845 461.807 484.185C461.807 485.526 462.325 486.811 463.246 487.758C464.168 488.706 465.417 489.238 466.72 489.238H698.326C699.629 489.238 700.879 488.706 701.8 487.758C702.721 486.811 703.239 485.526 703.239 484.185C703.239 482.845 702.721 481.56 701.8 480.613C700.879 479.665 699.629 479.133 698.326 479.133H466.72Z" fill="#E6E6E6"/>
<path d="M932.387 500.069C915.928 550.851 848.595 496.991 848.595 496.991L866.551 304.632C893.484 283.088 921.913 301.554 921.913 301.554L932.387 500.069Z" fill="#E6E6E6"/>
<path d="M928.852 670.503L951.795 670.751L946.064 738.768L928.855 738.769L928.852 670.503Z" fill="#FFB8B8"/>
<path d="M924.465 732.989H958.355C964.081 732.996 969.571 735.338 973.62 739.502C977.669 743.667 979.946 749.313 979.953 755.202V755.924H924.465V732.989Z" fill="#2F2E41"/>
<path d="M866.656 670.503L841.258 670.501L849.444 738.768L866.653 738.769L866.656 670.503Z" fill="#FFB8B8"/>
<path d="M815.553 755.923V755.201C815.553 749.31 817.829 743.66 821.88 739.495C825.93 735.329 831.424 732.989 837.152 732.989L871.042 732.991L871.041 755.926L815.553 755.923Z" fill="#2F2E41"/>
<path d="M927.303 726.986L897.247 546.788L869.398 724.663L841.184 726.275L833.66 487.953L834.227 487.823C838.892 486.748 948.678 461.949 966.676 497.426L966.767 497.606L951.746 727.796L927.303 726.986Z" fill="#2F2E41"/>
<path d="M895.449 282.089C914.489 282.089 929.924 266.215 929.924 246.632C929.924 227.05 914.489 211.176 895.449 211.176C876.408 211.176 860.973 227.05 860.973 246.632C860.973 266.215 876.408 282.089 895.449 282.089Z" fill="#FFB8B8"/>
<path d="M924.412 515.265C920.371 514.114 917.458 509.341 915.247 500.244C914.866 498.675 879.072 341.862 909.342 313.451L916.319 293.517L925.868 300.064C929.247 300.097 963.796 300.996 966.749 323.773C969.64 346.067 977.509 495.438 969.599 504.73C969.444 504.934 969.247 505.101 969.022 505.218C968.797 505.335 968.55 505.4 968.298 505.407C960.282 505.407 957.849 496.26 957.277 493.344C955.371 494.156 949.694 497.139 940.365 506.734C934.586 512.678 930.055 515.526 926.311 515.526C925.669 515.528 925.03 515.44 924.412 515.265Z" fill="#2F2E41"/>
<path d="M849.595 506.734C840.263 497.136 834.586 494.154 832.683 493.344C832.112 496.26 829.678 505.407 821.662 505.407C821.41 505.4 821.163 505.335 820.938 505.218C820.713 505.101 820.516 504.934 820.361 504.73C812.452 495.439 820.321 346.068 823.211 323.773C826.164 300.996 860.713 300.097 864.092 300.064L873.641 293.517L880.618 313.451C910.886 341.859 875.094 498.675 874.713 500.244C872.502 509.341 869.59 514.114 865.549 515.265C864.93 515.44 864.291 515.528 863.649 515.526C859.906 515.526 855.374 512.677 849.595 506.734Z" fill="#2F2E41"/>
<path d="M923.912 266.886C929.744 262.571 934.161 256.533 936.575 249.573C938.989 242.614 939.285 235.064 937.425 227.927C935.565 220.79 931.636 214.405 926.161 209.62C920.686 204.836 913.925 201.879 906.776 201.143C903.603 200.816 900.185 200.865 897.553 199.011C895.215 197.365 893.956 194.508 891.808 192.608C890.444 191.522 888.876 190.738 887.203 190.304C885.53 189.871 883.788 189.797 882.086 190.087C878.689 190.69 875.396 191.803 872.313 193.39C864.669 196.895 856.542 201.209 853.064 209.039C850.05 215.821 851.38 224.183 855.646 230.213C860.131 236.18 866.67 240.151 873.917 241.308C881.12 242.415 888.476 241.733 895.371 239.321C899.921 237.848 904.413 235.842 909.181 235.678C912.902 235.55 916.576 236.563 919.735 238.589C922.895 240.614 925.397 243.561 926.923 247.053C928.45 250.545 928.932 254.426 928.309 258.2C927.685 261.975 925.984 265.474 923.421 268.252" fill="#2F2E41"/>
<path d="M736.002 477.813C737.993 477.765 739.955 477.315 741.776 476.488C743.597 475.66 745.242 474.472 746.617 472.991C747.992 471.51 749.07 469.765 749.789 467.856C750.508 465.946 750.854 463.91 750.808 461.863L770.913 426.976L755.379 412.329L734.201 446.702C730.293 447.089 726.684 449.019 724.131 452.087C721.579 455.154 720.283 459.121 720.517 463.151C720.75 467.181 722.494 470.961 725.383 473.696C728.271 476.43 732.078 477.906 736.002 477.813Z" fill="#FFB8B8"/>
<path d="M969.254 516.032C970.922 514.914 972.359 513.469 973.484 511.779C974.609 510.089 975.399 508.189 975.809 506.185C976.22 504.181 976.243 502.114 975.876 500.101C975.51 498.089 974.762 496.17 973.675 494.455L972.905 453.908L952.2 449.869L951.795 490.56C948.67 493.004 946.59 496.6 945.991 500.59C945.391 504.58 946.321 508.654 948.583 511.954C950.844 515.254 954.263 517.523 958.118 518.283C961.973 519.044 965.965 518.237 969.254 516.032Z" fill="#FFB8B8"/>
<path d="M742.119 421.717L741.884 421.333L742.117 420.95C772.272 371.147 835.571 308.934 836.208 308.311L836.408 308.115L844.226 308.033L852.677 329.687C850.046 334.893 779.131 436.674 769.767 443.425C769.021 443.956 768.176 444.319 767.285 444.492C766.393 444.665 765.477 444.642 764.595 444.427C763.034 444.057 761.55 443.407 760.209 442.506C751.568 437.002 742.561 422.437 742.119 421.717Z" fill="#2F2E41"/>
<path d="M948.26 478.548C947.42 478.253 946.649 477.782 945.994 477.164C945.34 476.547 944.818 475.797 944.46 474.961C939.946 464.127 959.296 327.275 960.122 321.455L960.279 320.354L966.82 324.617L966.884 324.907C967.077 325.781 986.132 412.964 980.967 470.895L980.93 471.31L980.563 471.485C979.776 471.86 963.905 479.356 953.326 479.356C951.604 479.403 949.888 479.129 948.26 478.548Z" fill="#2F2E41"/>
<path d="M1078.6 757H705.22C704.848 757 704.491 756.848 704.227 756.577C703.964 756.306 703.816 755.939 703.816 755.556C703.816 755.174 703.964 754.806 704.227 754.536C704.491 754.265 704.848 754.113 705.22 754.113H1078.6C1078.97 754.113 1079.33 754.265 1079.59 754.536C1079.85 754.806 1080 755.174 1080 755.556C1080 755.939 1079.85 756.306 1079.59 756.577C1079.33 756.848 1078.97 757 1078.6 757Z" fill="#3F3D56"/>
</g>
<defs>
<clipPath id="clip0_48_2205">
<rect width="1080" height="757" fill="white"/>
</clipPath>
</defs>
</svg>
