<svg width="39" height="39" viewBox="0 0 39 39" fill="none" xmlns="http://www.w3.org/2000/svg">
<circle cx="19.2913" cy="19.2913" r="19.2913" fill="#EFEFEF"/>
<path d="M25.8611 12H13.1389C12.5716 12 12.0276 12.2158 11.6265 12.5998C11.2253 12.9839 11 13.5048 11 14.0479V22.9521C11 23.4952 11.2253 24.0161 11.6265 24.4002C12.0276 24.7842 12.5716 25 13.1389 25H25.8611C26.4284 25 26.9724 24.7842 27.3735 24.4002C27.7747 24.0161 28 23.4952 28 22.9521V14.0479C28 13.5048 27.7747 12.9839 27.3735 12.5998C26.9724 12.2158 26.4284 12 25.8611 12ZM13.1389 12.8192H25.8611C26.1849 12.8185 26.4968 12.9357 26.7336 13.1472C26.9703 13.3587 27.1142 13.6485 27.1359 13.9578C25.0226 15.0391 22.9009 16.1122 20.7791 17.1934C20.4925 17.3665 20.1887 17.5119 19.8722 17.6276C19.624 17.6747 19.3682 17.6705 19.1218 17.6154C18.8754 17.5603 18.6441 17.4556 18.4434 17.3081C17.2285 16.6938 16.0136 16.0712 14.8072 15.4568C13.8319 14.9653 12.8395 14.4657 11.8641 13.966C11.8838 13.6552 12.0267 13.3634 12.2637 13.1502C12.5006 12.937 12.8137 12.8186 13.1389 12.8192ZM27.1444 22.9521C27.1444 23.278 27.0092 23.5905 26.7686 23.821C26.5279 24.0514 26.2015 24.1808 25.8611 24.1808H13.1389C12.7985 24.1808 12.4721 24.0514 12.2314 23.821C11.9908 23.5905 11.8556 23.278 11.8556 22.9521V14.8957C13.8747 15.9115 15.8853 16.9436 17.9044 17.9675C18.265 18.1795 18.6534 18.3448 19.0594 18.459C19.6535 18.5517 20.2624 18.4322 20.7705 18.1232C22.0111 17.5006 23.2431 16.8699 24.4836 16.2473C25.3734 15.7886 26.2547 15.3463 27.1444 14.8957V22.9521Z" stroke="#2A93F2"/>
</svg>
