<svg width="39" height="39" viewBox="0 0 39 39" fill="none" xmlns="http://www.w3.org/2000/svg">
<circle cx="19.2913" cy="19.2913" r="19.2913" fill="#EFEFEF"/>
<path d="M24.5556 18H14.4444C13.6467 18 13 18.6512 13 19.4545V24.5455C13 25.3488 13.6467 26 14.4444 26H24.5556C25.3533 26 26 25.3488 26 24.5455V19.4545C26 18.6512 25.3533 18 24.5556 18Z" fill="white" stroke="#2A93F2" stroke-width="1.87" stroke-linecap="round" stroke-linejoin="round"/>
<path d="M16 18V14.8889C16 13.8575 16.3687 12.8683 17.0251 12.139C17.6815 11.4097 18.5717 11 19.5 11C20.4283 11 21.3185 11.4097 21.9749 12.139C22.6313 12.8683 23 13.8575 23 14.8889V18" fill="white"/>
<path d="M16 18V14.8889C16 13.8575 16.3687 12.8683 17.0251 12.139C17.6815 11.4097 18.5717 11 19.5 11C20.4283 11 21.3185 11.4097 21.9749 12.139C22.6313 12.8683 23 13.8575 23 14.8889V18" stroke="#2A93F2" stroke-width="1.87" stroke-linecap="round" stroke-linejoin="round"/>
</svg>
